<?xml version="1.0" standalone="yes"?>

<svg version="1.1" viewBox="0.0 0.0 1280.0 960.0" fill="none" stroke="none" stroke-linecap="square" stroke-miterlimit="10" xmlns="http://www.w3.org/2000/svg" xmlns:xlink="http://www.w3.org/1999/xlink"><clipPath id="p.0"><path d="m0 0l1280.0 0l0 960.0l-1280.0 0l0 -960.0z" clip-rule="nonzero"></path></clipPath><g clip-path="url(#p.0)"><path fill="#000000" fill-opacity="0.0" d="m0 0l1280.0 0l0 960.0l-1280.0 0z" fill-rule="nonzero"></path><path fill="#000000" fill-opacity="0.0" d="m163.81415 713.76483l844.59845 -584.28345l80.78735 116.755905l-844.5984 584.2835z" fill-rule="nonzero"></path><path fill="#ff9900" d="m270.2934 739.24664q-1.6461792 2.5637817 -3.3476257 4.937805q-1.7103577 2.361145 -3.742859 4.6411743q-2.0414124 2.267212 -4.5176086 4.4552q-2.4761963 2.1879883 -5.662979 4.392578q-3.9192047 2.7112427 -7.983444 4.553894q-4.055359 1.8554688 -8.06694 2.730713q-3.9987335 0.866333 -7.8588257 0.72473145q-3.8561401 -0.16326904 -7.4322815 -1.432251q-3.572174 -1.2906494 -6.744766 -3.7887573q-3.1814728 -2.5109863 -5.8042145 -6.3014526q-2.6227417 -3.7904663 -3.8421478 -7.6397095q-1.228302 -3.8621826 -1.167923 -7.6468506q0.064331055 -3.8063965 1.2710419 -7.472107q1.219574 -3.6745605 3.4401703 -7.110718q2.2334595 -3.4450073 5.3868866 -6.576477q3.1534271 -3.1315308 7.098343 -5.8605347q3.1867676 -2.2045898 6.1075134 -3.750122q2.9207458 -1.5455322 5.7622986 -2.656311q2.8415527 -1.1107788 5.654358 -1.8787231q2.803894 -0.7807007 5.783676 -1.4171143l3.3339996 4.8183594q-2.6248474 0.105895996 -5.4306183 0.5269165q-2.7929382 0.4121704 -5.755005 1.3213501q-2.9620667 0.90911865 -6.035965 2.3706665q-3.0738983 1.4614868 -6.222107 3.6394043q-6.3606873 4.4002075 -10.065002 9.0147705q-3.7003632 4.5927734 -4.9903564 9.209106q-1.2900085 4.616272 -0.2743988 9.214539q1.0156097 4.5982666 4.0828857 9.031189q3.0672913 4.4329224 7.003769 6.991516q3.927597 2.5457764 8.702744 2.9663086q4.7751465 0.42053223 10.378098 -1.4226074q5.6069183 -1.8648682 11.967606 -6.2651367q3.1482086 -2.1778564 5.6511536 -4.574402q2.5029602 -2.3964844 4.4238586 -4.8652954q1.9208679 -2.468811 3.2873535 -4.915039q1.379303 -2.4552002 2.302002 -4.74646l3.307312 4.779846l0 0zm54.314972 -32.387573l-3.378479 -4.8826294q-1.4505615 2.8464355 -3.6552734 5.9485474q-2.2135925 3.0892944 -4.9351196 6.1309814q-2.7175903 3.0199585 -5.876831 5.8134766q-3.1375427 2.7974854 -6.4527893 5.0910034q-4.304718 2.9779053 -8.265106 4.558716q-3.9515076 1.5936279 -7.377838 1.7219849q-3.4352112 0.11553955 -6.284973 -1.256958q-2.858612 -1.385315 -4.9212646 -4.366333q-2.0448608 -2.9552612 -2.1190186 -6.247864q-0.08306885 -3.30542 1.5149841 -6.8998413q1.598053 -3.5944824 4.6953735 -7.4660645q3.0884094 -3.8845215 7.346985 -8.027527q4.2497253 -4.155884 9.487732 -8.558411q5.2291565 -4.4154663 11.195587 -9.055969l-2.3382568 -3.3792725q-1.4224854 -2.0558472 -3.2781372 -3.090088q-1.864563 -1.0470581 -4.0614014 -1.2562256q-2.18396 -0.21813965 -4.5895386 0.28704834q-2.4144592 0.49230957 -4.915039 1.5192261q-2.5094604 1.0140381 -5.041809 2.461914q-2.532318 1.447815 -4.9480896 3.1190186q-3.2381592 2.2401123 -5.68869 4.4103394q-2.4376526 2.161377 -4.359436 4.326782q-1.9306641 2.152588 -3.5352478 4.364624q-1.6134644 2.1990967 -3.194336 4.52771l-3.2450867 -4.6898804q3.6538086 -4.2755737 8.090332 -8.655701q4.449402 -4.389038 10.141907 -8.327026q4.818695 -3.333496 9.563904 -5.4002075q4.7452087 -2.0667725 9.073883 -2.4013672q4.3286743 -0.33459473 8.053925 1.2872314q3.7381287 1.612854 6.5653687 5.6988525l20.71524 29.938171l-3.9834595 2.7557373zm-16.563324 -23.937683q-10.1111145 7.8497314 -16.813263 14.06311q-6.698181 6.1917114 -10.360077 11.004883q-3.6490173 4.8043213 -4.436676 8.389099q-0.7748413 3.5759277 1.0299683 6.184265q1.4669495 2.1201172 3.6843567 3.0180664q2.208496 0.88513184 4.9905396 0.5944824q2.7948608 -0.2994995 6.0772705 -1.7342529q3.2824097 -1.4347534 6.880371 -3.9238281q2.1202393 -1.4667358 4.2128906 -3.2753906q2.0926514 -1.8086548 4.048004 -3.78833q1.9464417 -1.9924927 3.7219543 -4.0947266q1.7666016 -2.1151123 3.2051086 -4.1552124q1.4384766 -2.0401 2.4806519 -3.9390259q1.0332642 -1.9118042 1.5476074 -3.5025635l-10.268707 -14.840576zm77.76083 -18.398071l-20.164001 -29.14154q-2.533844 -3.6619873 -5.150299 -5.3288574q-2.6124573 -1.6885986 -5.37558 -1.8100586q-2.7720337 -0.13427734 -5.7539673 1.1306152q-2.9779663 1.2431641 -6.229004 3.4921875q-3.7521362 2.5957031 -6.744568 6.0147705q-2.9795837 3.4102173 -5.2229614 7.033081q-2.2434082 3.6228638 -3.75943 7.1986084q-1.5249023 3.5628052 -2.3034668 6.4193726l21.986603 31.775574l-4.0091553 2.7734985l-30.539429 -44.136353l4.0091553 -2.7734985l5.3522034 7.7351074q1.270752 -2.9689941 2.906311 -6.399414q1.6483765 -3.43927 3.8729553 -6.897156q2.2285156 -3.4796143 5.2100525 -6.7771606q2.9943542 -3.3064575 6.952118 -6.0443726q4.4589233 -3.0845947 8.533844 -4.307678q4.0749207 -1.2230225 7.6414185 -0.76434326q3.5576172 0.44580078 6.5968933 2.5041504q3.0393066 2.0582886 5.439789 5.527527l20.759674 30.002441l-4.0091553 2.7734985zm51.55954 -68.34735q2.9339294 4.2401733 4.3232727 8.142883q1.3893738 3.90271 1.4723816 7.4552q0.082977295 3.5524292 -1.0346985 6.8526q-1.1137085 3.2783813 -3.2165833 6.2530518q-2.1028442 2.9746704 -5.0634766 5.725769q-2.9694824 2.7382812 -6.606018 5.2539673l-22.769958 15.752014l-30.539429 -44.13629l22.705719 -15.707581q5.435486 -3.7601929 10.825073 -5.911682q5.3935547 -2.1732788 10.580841 -1.980896q5.1784363 0.1795044 10.052673 3.0773926q4.8871155 2.888977 9.270203 9.223572zm-4.1505127 2.8712769q-2.48938 -3.5977173 -5.107605 -5.871338q-2.6182556 -2.2736206 -5.3554077 -3.401001q-2.7243042 -1.1362915 -5.5773926 -1.1954956q-2.849121 -0.08099365 -5.8131104 0.71551514q-2.9640198 0.7965088 -6.0053406 2.3875122q-3.0373535 1.5692139 -6.1855774 3.7471313l-18.696564 12.934021l25.445068 36.773865l18.696564 -12.934082q4.72876 -3.2713013 8.061188 -6.8305664q3.332428 -3.5593262 4.6756287 -7.604431q1.3560486 -4.054016 0.46990967 -8.6848755q-0.873291 -4.6397095 -4.607361 -10.036255zm65.04257 -36.16095q2.9961548 4.330078 3.1618652 8.908325q0.16967773 4.5564575 -1.9277344 9.10437q-2.1062622 4.534973 -6.248291 8.901367q-4.1292114 4.357483 -9.744598 8.242126q-6.1036987 4.222473 -11.760284 6.9766846q-5.6526184 2.7324219 -10.459839 3.9680786l-3.2273254 -4.6641846q2.660553 -0.548584 5.3606873 -1.3145142q2.6912537 -0.7788086 5.5496216 -1.920227q2.8623047 -1.163147 5.889801 -2.8015747q3.0275269 -1.6383667 6.3042297 -3.9051514q4.625946 -3.2001953 8.060211 -6.886963q3.4342651 -3.6867065 5.263611 -7.441162q1.8421936 -3.7633667 1.8827515 -7.439331q0.044555664 -3.6976929 -2.178131 -6.909912l-5.7789307 -8.351868q-0.10168457 3.1482544 -1.0128479 6.609497q-0.91119385 3.4613037 -2.647522 6.828369q-1.7323608 3.345398 -4.3313904 6.4543457q-2.598999 3.1089478 -6.1712646 5.5802q-4.0477295 2.8001099 -7.7076416 4.2110596q-3.6470642 1.4020386 -6.892578 1.7092896q-3.2415771 0.28552246 -6.10141 -0.41497803q-2.8598022 -0.7005615 -5.312256 -2.157898q-2.4613342 -1.4701538 -4.516327 -3.5064697q-2.0638733 -2.0491333 -3.7264404 -4.4519043l-7.690399 -11.11438l4.0862427 -2.8267822l7.0858765 10.240601q2.5604858 3.7005615 5.52359 6.1156006q2.9759521 2.406128 6.4869995 3.1691284q3.5150452 0.741272 7.6136475 -0.36517334q4.1114807 -1.1152954 8.955872 -4.466614q3.7650146 -2.6046143 6.219757 -5.784729q2.4458618 -3.1929932 3.8501892 -6.710388q1.4171753 -3.5263062 1.9815369 -7.241638q0.5643616 -3.715332 0.52783203 -7.3379517l-9.824158 -14.198181l4.073395 -2.8179321l19.381653 28.010864zm93.604034 -46.09674q-1.6461792 2.5637207 -3.3476562 4.937744q-1.7103271 2.361206 -3.742859 4.6412354q-2.0413818 2.267212 -4.517578 4.4552q-2.4761963 2.1879883 -5.662964 4.392578q-3.9192505 2.7112427 -7.9834595 4.553833q-4.055359 1.8554688 -8.066956 2.730713q-3.9987183 0.866333 -7.8588257 0.7247925q-3.8561401 -0.16326904 -7.432251 -1.432251q-3.5722046 -1.2907104 -6.744812 -3.7888184q-3.1814575 -2.5109253 -5.804199 -6.3013916q-2.6227417 -3.7904663 -3.842163 -7.6397705q-1.2282715 -3.8621216 -1.1679077 -7.6467896q0.064331055 -3.8063965 1.2710571 -7.472107q1.2195435 -3.674591 3.4401855 -7.1107483q2.2334595 -3.4450073 5.386841 -6.5765076q3.1534424 -3.1314697 7.0983887 -5.860504q3.1867676 -2.2045898 6.107483 -3.750122q2.9207764 -1.5455627 5.762329 -2.6563416q2.8415527 -1.1107788 5.654358 -1.8786621q2.803894 -0.7807617 5.7836304 -1.4171753l3.3340454 4.81839q-2.624878 0.105895996 -5.430664 0.526947q-2.7929077 0.4121399 -5.755005 1.3212891q-2.9620361 0.9091797 -6.0359497 2.3706665q-3.0738525 1.4615173 -6.222107 3.6394043q-6.3606567 4.4002686 -10.065002 9.014801q-3.7003174 4.592804 -4.9903564 9.209106q-1.289978 4.6163025 -0.27435303 9.214569q1.015564 4.5982666 4.0828857 9.031189q3.0672607 4.4328613 7.003723 6.991516q3.9276123 2.5457764 8.702759 2.9663086q4.7751465 0.4204712 10.378113 -1.4226685q5.6068726 -1.8648071 11.96759 -6.2650757q3.1481934 -2.1779175 5.651184 -4.574402q2.5029297 -2.3964844 4.423828 -4.8652954q1.9208984 -2.468811 3.2873535 -4.9151q1.3792725 -2.4551392 2.302002 -4.746399l3.307312 4.779846l0 0zm52.071533 -63.41971q4.107483 5.9362183 4.9448853 11.759766q0.8413086 5.8017883 -0.97662354 11.220306q-1.8140259 5.3967896 -5.98584 10.296753q-4.1679077 4.878235 -10.078857 8.967346q-5.9366455 4.106903 -12.010071 6.3135376q-6.0823975 2.193756 -11.811279 2.0150452q-5.737732 -0.19155884 -10.883789 -3.0154114q-5.14209 -2.845581 -9.249573 -8.78183q-2.7383423 -3.957489 -3.9804077 -7.8670654q-1.2293091 -3.918457 -1.1995239 -7.71994q0.029724121 -3.8014526 1.2848511 -7.424652q1.2679443 -3.6321106 3.5498657 -7.034607q2.2818604 -3.4025269 5.470825 -6.482605q3.1801147 -3.0929565 7.125 -5.821991q5.9109497 -4.0891113 11.945862 -6.2690735q6.0477905 -2.1888123 11.747009 -1.9706116q5.712097 0.20935059 10.845276 3.0420837q5.145996 2.8238525 9.26239 8.772949zm-4.1376343 2.8623657q-3.2451172 -4.6898804 -7.263611 -7.229767q-4.0185547 -2.5398865 -8.710693 -2.922821q-4.6881714 -0.4046631 -10.005493 1.4118652q-5.326233 1.8036804 -11.211487 5.8750305q-5.8723755 4.0624695 -9.467957 8.449768q-3.59552 4.3872986 -4.9171143 8.93045q-1.3215942 4.5431824 -0.3564453 9.233307q0.9562988 4.677307 4.1569214 9.302948q3.2451172 4.6898804 7.2764893 7.220886q4.031372 2.5309753 8.749207 2.8961182q4.7178345 0.36517334 10.082642 -1.4651794q5.364746 -1.8303528 11.237183 -5.8928223q5.885193 -4.0713196 9.451111 -8.419098q3.565857 -4.347809 4.848938 -8.864288q1.2958984 -4.5253906 0.33563232 -9.180939q-0.9602661 -4.6555786 -4.2053223 -9.345459zm4.6189575 -35.87439l4.685364 6.7714233q0.56884766 -2.1984863 1.3522949 -4.773407q0.77453613 -2.5877686 2.0560303 -5.1842346q1.2943726 -2.6054077 3.2024536 -5.0653076q1.90802 -2.4599304 4.7092896 -4.397827q4.4589233 -3.0846252 9.285645 -3.440796q4.8307495 -0.37789917 9.858215 2.356964q0.74902344 -3.3110962 1.8755493 -6.351349q1.1264648 -3.0402222 2.6975708 -5.685028q1.5621948 -2.6576843 3.6035767 -4.9248657q2.0413818 -2.2671814 4.637085 -4.0628357q3.3152466 -2.2934875 6.80896 -3.0384216q3.4848022 -0.7578125 6.734009 -0.09866333q3.2531738 0.63742065 6.1343994 2.577118q2.8851318 1.9179688 4.9744263 4.9375l21.248718 30.709106l-4.0220337 2.7823792l-20.537415 -29.681183q-1.911499 -2.7625427 -4.069336 -4.480652q-2.157898 -1.7181396 -4.598755 -2.252533q-2.449707 -0.5472412 -5.1636963 0.17129517q-2.7011108 0.70962524 -5.720825 2.798645q-2.4157715 1.6712036 -4.300049 4.000702q-1.88031 2.3077393 -3.2478027 4.9447327q-1.3546753 2.6280823 -2.2132568 5.368988q-0.8674927 2.7280273 -1.2141113 5.2477417q0.7765503 0.7927551 1.2339478 1.4263306q0.47021484 0.6246643 1.0925903 1.5241089l20.893066 30.19513l-4.0220337 2.7823792l-20.537415 -29.681183q-2.2671509 -3.2764893 -4.6879272 -4.9077454q-2.407898 -1.6401367 -4.901184 -1.9482422q-2.5021973 -0.32095337 -5.0184937 0.5458374q-2.50354 0.85791016 -4.9835815 2.573578q-2.338623 1.6178589 -4.0786743 4.0185547q-1.7489014 2.387848 -2.9543457 5.121704q-1.192627 2.7249756 -1.8634644 5.5450134q-0.6668701 2.7982483 -0.8583374 5.267639l22.448914 32.443726l-4.0091553 2.773468l-30.539429 -44.13629l4.0092163 -2.7734985zm130.39972 -70.16464q2.284912 3.3022156 2.9658813 6.5930176q0.6720581 3.277954 -0.44067383 6.612671q-1.1127319 3.3346863 -4.1486206 6.74588q-3.0230713 3.4022827 -8.163025 6.9580383l-19.827393 13.716339l11.735718 16.960663l-4.0091553 2.7734985l-30.539429 -44.136322l23.836487 -16.489838q5.1399536 -3.5557556 9.389954 -5.1848755q4.2539062 -1.6508484 7.7493286 -1.5420227q3.4865723 0.09597778 6.326294 1.8933716q2.8308716 1.7845459 5.124634 5.099579zm-4.1505127 2.8712769q-2.1781616 -3.1480103 -4.5526123 -4.355316q-2.3744507 -1.2073059 -5.2662354 -0.74575806q-2.9006348 0.44869995 -6.468811 2.4041138q-3.564209 1.9336853 -8.125916 5.089447l-17.257385 11.938446l13.602722 19.658966l17.257385 -11.938446q1.760437 -1.217865 3.7827759 -2.5789185q2.0263062 -1.382782 3.8372803 -2.9395447q1.8148804 -1.5785217 3.2236328 -3.3320618q1.4216309 -1.7624207 2.0280151 -3.796875q0.61920166 -2.043335 0.2107544 -4.363678q-0.40454102 -2.3420715 -2.2716064 -5.0403748zm76.09943 -7.425995l-3.378418 -4.882599q-1.4506226 2.8464355 -3.6553345 5.948578q-2.213562 3.0892944 -4.9351196 6.1309814q-2.7175293 3.0199585 -5.876831 5.8134766q-3.1375122 2.7974854 -6.452759 5.0909424q-4.3047485 2.9779663 -8.265137 4.5587463q-3.951477 1.5936279 -7.3778076 1.7219849q-3.4352417 0.11550903 -6.284973 -1.256958q-2.8586426 -1.3853455 -4.9212646 -4.3663025q-2.0448608 -2.9552612 -2.1190186 -6.247864q-0.08306885 -3.3054504 1.5149536 -6.899872q1.5980835 -3.594452 4.6953735 -7.466095q3.08844 -3.884491 7.347046 -8.027496q4.249695 -4.1558533 9.487732 -8.558441q5.229126 -4.415436 11.195557 -9.055939l-2.3382568 -3.3792725q-1.4224854 -2.0558472 -3.2781372 -3.0900574q-1.864563 -1.0470581 -4.0614014 -1.2562561q-2.18396 -0.21810913 -4.5895386 0.28707886q-2.4144287 0.49230957 -4.915039 1.5191956q-2.5094604 1.0140686 -5.041809 2.461914q-2.5323486 1.4478455 -4.94812 3.119049q-3.2381592 2.2401123 -5.6886597 4.4103394q-2.437622 2.161316 -4.359436 4.326782q-1.9306641 2.152588 -3.5352783 4.3645935q-1.6134644 2.1991272 -3.194336 4.5277405l-3.2450562 -4.6898804q3.6538086 -4.275635 8.090332 -8.655731q4.449402 -4.3890076 10.141907 -8.327026q4.8186646 -3.3335266 9.563904 -5.400238q4.7452393 -2.0667114 9.073853 -2.4013062q4.3286743 -0.33459473 8.053955 1.2872009q3.7380981 1.6128845 6.5653687 5.6988525l20.71521 29.938171l-3.9834595 2.7557068zm-16.563293 -23.937683q-10.111145 7.8497314 -16.813293 14.063171q-6.698181 6.191681 -10.360046 11.004852q-3.6490479 4.804291 -4.4367065 8.389099q-0.7748413 3.5759277 1.0299683 6.1842957q1.46698 2.1200867 3.6843872 3.018036q2.208496 0.8851013 4.9905396 0.5944824q2.7948608 -0.2994995 6.0772705 -1.7342529q3.2824097 -1.4347534 6.880371 -3.9237976q2.1202393 -1.4667358 4.2128906 -3.2754211q2.0926514 -1.8086548 4.0479736 -3.78833q1.9464722 -1.9924927 3.7219849 -4.094757q1.7666016 -2.1150818 3.2050781 -4.155182q1.4385376 -2.0401306 2.4806519 -3.9390259q1.0333252 -1.9117737 1.5476685 -3.5025635l-10.268738 -14.840607zm77.7608 -18.39804l-20.164001 -29.14154q-2.5338135 -3.6619568 -5.1502686 -5.3288574q-2.6124878 -1.6885986 -5.3756104 -1.8100586q-2.7720337 -0.13427734 -5.7539673 1.1306152q-2.9779663 1.2431335 -6.228943 3.492157q-3.7521973 2.5957031 -6.744629 6.014801q-2.9795532 3.4101868 -5.2229614 7.033081q-2.2434082 3.6228943 -3.7593994 7.198578q-1.5249023 3.5628357 -2.3034668 6.4193726l21.986572 31.775574l-4.0091553 2.7734985l-30.539429 -44.13629l4.0092163 -2.7734985l5.352173 7.7351074q1.270752 -2.9690552 2.906311 -6.3994446q1.6483765 -3.43927 3.8729248 -6.897156q2.2285156 -3.4796143 5.210083 -6.7771606q2.9943237 -3.306427 6.9520874 -6.0443726q4.4589233 -3.0845947 8.5338745 -4.3076477q4.074951 -1.2230225 7.6414185 -0.7643738q3.5576172 0.44580078 6.596863 2.5041504q3.0393066 2.058319 5.4398193 5.5275574l20.759644 30.00241l-4.0091553 2.7734985zm52.571228 -60.212463q2.9960938 4.3301086 3.1618652 8.90834q0.1696167 4.5565033 -1.9277344 9.104355q-2.1062622 4.5350037 -6.248352 8.901367q-4.1291504 4.357483 -9.744568 8.242157q-6.1036987 4.222473 -11.760254 6.976654q-5.652649 2.7324524 -10.459839 3.9681091l-3.227356 -4.6641846q2.6605835 -0.548584 5.360718 -1.3145447q2.6912231 -0.7787781 5.5496216 -1.9201965q2.8623047 -1.163147 5.8897705 -2.8015442q3.0275269 -1.6383972 6.3042603 -3.9052124q4.6259155 -3.2001648 8.060181 -6.886902q3.4342651 -3.6867676 5.263611 -7.4411926q1.8421631 -3.7633362 1.8827515 -7.439316q0.044555664 -3.6976929 -2.1781006 -6.9099426l-5.7789307 -8.351852q-0.10168457 3.1482697 -1.0128784 6.6095123q-0.91119385 3.461258 -2.647522 6.8283844q-1.7323608 3.3453674 -4.33136 6.454315q-2.59906 3.1089172 -6.1713257 5.5801697q-4.0476685 2.800171 -7.7075806 4.21109q-3.6470947 1.402008 -6.892639 1.7092896q-3.241516 0.28552246 -6.1013794 -0.41500854q-2.8598022 -0.700531 -5.312256 -2.1578674q-2.4613037 -1.4701843 -4.5162964 -3.5064697q-2.0639038 -2.0491333 -3.7264404 -4.451874l-7.6904297 -11.114395l4.0862427 -2.826828l7.0858765 10.240662q2.5604858 3.7005005 5.5236206 6.1155396q2.9759521 2.4061584 6.4869995 3.169159q3.5150146 0.74124146 7.6136475 -0.36517334q4.11145 -1.1153259 8.955872 -4.466614q3.7650146 -2.6046143 6.2197266 -5.784729q2.4458618 -3.192978 3.8502197 -6.7104034q1.4171753 -3.5263062 1.9815063 -7.241638q0.5643921 -3.7153168 0.52783203 -7.3379517l-9.824158 -14.198135l4.0734253 -2.8179474l19.381653 28.010818z" fill-rule="nonzero"></path><path fill="#000000" fill-opacity="0.0" d="m9.763812 465.4174l655.5276 -456.97638l80.62988 115.65354l-655.5275 456.97638z" fill-rule="nonzero"></path><path fill="#ff9900" d="m110.67584 504.81287q-1.3096085 2.0557861 -2.6701279 3.956543q-1.360527 1.9007874 -2.9871445 3.720398q-1.6266174 1.8196411 -3.601303 3.5771484q-1.974678 1.7575073 -4.512619 3.5267334q-3.1275558 2.1802979 -6.3690186 3.6780396q-3.241455 1.4978027 -6.443001 2.2058716q-3.201538 0.7081299 -6.290146 0.5946045q-3.0886002 -0.113464355 -5.9488983 -1.1289062q-2.8603058 -1.0155029 -5.4115143 -3.0083008q-2.5512123 -1.9927979 -4.660103 -5.0177q-2.1088867 -3.0249634 -3.096321 -6.1078796q-0.9874306 -3.0829468 -0.9508934 -6.1178284q0.036533356 -3.0348816 0.99837494 -5.971985q0.9618416 -2.9370728 2.7336311 -5.695984q1.7717896 -2.7588806 4.285553 -5.2731323q2.5137634 -2.5142517 5.666954 -4.712372q2.537941 -1.7692261 4.870056 -3.014038q2.3321228 -1.244812 4.6021347 -2.141571q2.2700043 -0.89678955 4.51519 -1.5286255q2.2451782 -0.63183594 4.6271133 -1.1495056l2.6807861 3.8452759q-2.104622 0.09576416 -4.3428497 0.43707275q-2.2382202 0.34127808 -4.602646 1.0752869q-2.3644257 0.7340393 -4.8193054 1.9120483q-2.4548798 1.178009 -4.9671783 2.9293823q-5.0758743 3.5384521 -8.024567 7.232025q-2.9486847 3.6936035 -3.9683113 7.3947754q-1.0196304 3.7011719 -0.19333649 7.372589q0.82629776 3.6714478 3.2926216 7.2091064q2.4663315 3.5375977 5.616539 5.5700073q3.1502151 2.0323486 6.9757385 2.355896q3.8255234 0.32354736 8.302261 -1.1782837q4.476738 -1.50177 9.552612 -5.040222q2.5122986 -1.7514038 4.5052185 -3.6740112q1.9929199 -1.9225769 3.5251236 -3.9049377q1.5322037 -1.9823914 2.6227417 -3.942566q1.090538 -1.9601746 1.8237152 -3.8045654l2.662918 3.8196106l0 0zm43.349747 -26.067413l-2.7165375 -3.896515q-1.1487732 2.2864685 -2.904663 4.767639q-1.7558899 2.4811401 -3.9290009 4.9102783q-2.1730957 2.4291382 -4.683777 4.674591q-2.5106964 2.245453 -5.151169 4.0861816q-3.435196 2.3947144 -6.5943146 3.6827087q-3.1591415 1.2880249 -5.905098 1.3928223q-2.745964 0.10479736 -5.0313644 -0.9876404q-2.2854004 -1.0924377 -3.9474869 -3.4765015q-1.6442184 -2.358429 -1.7121277 -4.996704q-0.06791687 -2.6382751 1.1984787 -5.5210266q1.2663956 -2.882721 3.7288132 -5.989746q2.4624176 -3.1069946 5.852043 -6.441345q3.3896255 -3.33432 7.5681763 -6.8757935q4.178543 -3.5414734 8.929642 -7.2725525l-1.8765564 -2.691681q-1.1437988 -1.6406555 -2.634781 -2.467865q-1.490982 -0.8272095 -3.2456512 -0.9944458q-1.7546539 -0.16720581 -3.67939 0.24124146q-1.924736 0.40844727 -3.9232254 1.2302246q-1.9984894 0.82177734 -4.024521 1.9865112q-2.0260239 1.1647644 -3.9487076 2.5050964q-2.5892105 1.8049622 -4.538254 3.5446167q-1.9490433 1.739624 -3.4820557 3.4749756q-1.53302 1.735321 -2.813919 3.5043945q-1.2809067 1.769104 -2.5338287 3.632965l-2.6092987 -3.7427063q2.9020996 -3.4325867 6.44825 -6.9522095q3.5461502 -3.5196533 8.083672 -6.682831q3.8453598 -2.6806335 7.6337357 -4.3501587q3.7883835 -1.6695557 7.250244 -1.949585q3.461853 -0.2800598 6.453491 1.0057373q2.991623 1.2857971 5.261368 4.541443l16.656647 23.891876l-3.178833 2.2160034zm-13.31459 -19.098114q-8.061188 6.305237 -13.40609 11.28833q-5.344902 4.9830933 -8.255501 8.840607q-2.9105988 3.8575134 -3.5228424 6.7223206q-0.612236 2.8648071 0.8353882 4.9412537q1.1795502 1.691925 2.9498138 2.4006348q1.7702637 0.7087097 4.0018997 0.46722412q2.2316284 -0.24145508 4.8516006 -1.4012146q2.6199799 -1.15979 5.4911804 -3.1613464q1.6919556 -1.1794739 3.3652344 -2.6316528q1.6732788 -1.4521484 3.2265167 -3.0491943q1.5532227 -1.5970459 2.9658203 -3.2865295q1.4125977 -1.6894531 2.5575562 -3.3256836q1.1449738 -1.6362305 1.9671326 -3.1617432q0.8221741 -1.5254822 1.2291107 -2.799591l-8.256821 -11.843414zm62.15065 -14.946106l-16.209854 -23.251007q-2.0373993 -2.9223938 -4.1328735 -4.261505q-2.0954742 -1.3391113 -4.312393 -1.4317017q-2.2169037 -0.09259033 -4.597229 0.91915894q-2.38031 1.0117493 -4.969528 2.8167114q-2.9993744 2.0909119 -5.3740387 4.8320007q-2.3746796 2.7410889 -4.1608124 5.6433105q-1.7861481 2.9022217 -2.99234 5.7620544q-1.206192 2.8598022 -1.817337 5.1524353l17.675354 25.353088l-3.2044678 2.2338562l-24.556046 -35.222565l3.2044678 -2.2338562l4.307144 6.1780396q1.0081329 -2.3789062 2.3075562 -5.132324q1.2994385 -2.7533875 3.0751038 -5.534027q1.7756653 -2.7806396 4.1565704 -5.430847q2.38089 -2.650177 5.534088 -4.848297q3.5633545 -2.4840698 6.8153687 -3.474945q3.2520142 -0.99087524 6.1071777 -0.63848877q2.8551788 0.35238647 5.2905884 1.987854q2.4354095 1.6354675 4.36557 4.4040527l16.692398 23.943146l-3.2044678 2.2338562zm41.052048 -54.826416q2.3591003 3.3838196 3.4859924 6.5028687q1.1268921 3.119049 1.2033691 5.960846q0.07647705 2.8418274 -0.80926514 5.478241q-0.8857422 2.636444 -2.556961 5.0204773q-1.6712189 2.3840332 -4.039749 4.5875244q-2.368515 2.2034912 -5.2653503 4.2229004l-18.175735 12.670532l-24.55603 -35.222595l18.12445 -12.634766q4.332443 -3.0202026 8.639389 -4.7655334q4.306961 -1.7453308 8.457977 -1.6105957q4.1510315 0.13470459 8.061081 2.4373474q3.9100647 2.3026428 7.430832 7.3527527zm-3.3070068 2.305359q-2.0016632 -2.8711548 -4.1026306 -4.6825867q-2.1009674 -1.8114624 -4.286911 -2.7065735q-2.1859283 -0.8951111 -4.466934 -0.9430542q-2.2809906 -0.047912598 -4.651642 0.59521484q-2.3706512 0.64312744 -4.7975464 1.9159241q-2.4269104 1.2727966 -4.939209 3.0241394l-14.919998 10.400909l20.463379 29.352142l14.919983 -10.400909q3.7684631 -2.6270447 6.422409 -5.4866333q2.6539612 -2.8595886 3.726471 -6.1023865q1.0725098 -3.2427979 0.3538208 -6.951172q-0.7187042 -3.7083435 -3.7211914 -8.015015zm51.929504 -29.115265q2.4127197 3.4607239 2.558075 7.1116333q0.1453247 3.65094 -1.5257568 7.2919617q-1.671051 3.6410217 -4.966278 7.1381226q-3.2951965 3.4970703 -7.7814636 6.6245117q-4.8707886 3.3954773 -9.384735 5.6088867q-4.5139465 2.21344 -8.350952 3.2121582l-2.5914307 -3.717102q2.12323 -0.45159912 4.2774963 -1.0772095q2.1542969 -0.62561035 4.4410095 -1.5530701q2.2867126 -0.9274597 4.6996155 -2.2476501q2.4129028 -1.3201599 5.027771 -3.1430054q3.6915283 -2.5734253 6.4301453 -5.530121q2.738617 -2.956726 4.197296 -5.97348q1.4586487 -3.0167847 1.4796753 -5.9646606q0.020996094 -2.947876 -1.7662048 -5.511383l-4.646698 -6.6651q-0.06881714 2.5240784 -0.7871399 5.2914124q-0.71829224 2.7673035 -2.0969849 5.46167q-1.3786621 2.6943665 -3.4507751 5.186432q-2.0720825 2.4920654 -4.9176636 4.4757385q-3.2301025 2.2517395 -6.1495667 3.3917542q-2.919464 1.1399841 -5.510803 1.3845825q-2.591339 0.2446289 -4.882904 -0.31021118q-2.2915497 -0.5548401 -4.261917 -1.714508q-1.9703827 -1.159668 -3.621109 -2.7897644q-1.6507416 -1.6300964 -2.9911346 -3.5527344l-6.1836853 -8.86972l3.2557373 -2.2696228l5.7011414 8.177582q2.0552826 2.9480286 4.4402313 4.866272q2.3849335 1.9182434 5.197418 2.5099182q2.8124695 0.5917053 6.0924377 -0.30441284q3.2799988 -0.89608765 7.151001 -3.5946045q2.9993591 -2.0909119 4.9487 -4.6497803q1.9493408 -2.558838 3.0697021 -5.3778687q1.1203308 -2.8190308 1.5612488 -5.7929688q0.44091797 -2.973938 0.39785767 -5.877136l-7.899414 -11.330688l3.2557373 -2.2696228l15.58432 22.35379zm74.753265 -37.140564q-1.3096008 2.0557556 -2.6701355 3.956543q-1.3605042 1.9007874 -2.9871216 3.720398q-1.6266174 1.8196411 -3.6013184 3.5771484q-1.9746704 1.7575073 -4.5126038 3.5267334q-3.1275635 2.1802673 -6.3690186 3.6780396q-3.241455 1.4978027 -6.442993 2.2058716q-3.2015686 0.70809937 -6.290161 0.5946045q-3.0885925 -0.113464355 -5.9489136 -1.1289368q-2.8602905 -1.0154724 -5.411499 -3.0082703q-2.5512085 -1.9927979 -4.660095 -5.0177307q-2.1088867 -3.0249329 -3.0963135 -6.1078796q-0.9874573 -3.0829468 -0.9508972 -6.1178284q0.03652954 -3.0348816 0.99835205 -5.9719543q0.961853 -2.9371033 2.7336426 -5.695984q1.7717896 -2.7588806 4.285553 -5.2731323q2.5137634 -2.5142517 5.6669617 -4.7124023q2.5379333 -1.7692261 4.870056 -3.014038q2.3321228 -1.244812 4.602112 -2.141571q2.2700195 -0.89675903 4.5151978 -1.528595q2.2451782 -0.63186646 4.6271057 -1.1495056l2.6808167 3.8452454q-2.1046448 0.09579468 -4.342865 0.43707275q-2.2382202 0.3413086 -4.602661 1.0753174q-2.3644104 0.7340088 -4.819275 1.9120178q-2.454895 1.1780396 -4.9671936 2.9293823q-5.0758667 3.5384521 -8.024567 7.2320557q-2.9486694 3.6936035 -3.9683228 7.394745q-1.0196228 3.7011719 -0.19332886 7.3726196q0.82629395 3.6714478 3.292633 7.209076q2.4663086 3.5376282 5.6165466 5.5700073q3.1502075 2.0323486 6.975708 2.355896q3.825531 0.32354736 8.302277 -1.1782532q4.4767456 -1.5018005 9.552612 -5.0402527q2.5122986 -1.7513733 4.5052185 -3.6739807q1.9929199 -1.9225769 3.525116 -3.9049683q1.5322266 -1.9823608 2.6227417 -3.9425354q1.0905457 -1.9602051 1.8237305 -3.804596l2.6629028 3.819641l0 0zm41.472076 -50.89081q3.306305 4.742462 3.9924927 9.387756q0.68618774 4.6452637 -0.74942017 8.979248q-1.4355774 4.333954 -4.7610474 8.252106q-3.3254395 3.9181824 -8.042419 7.206421q-4.7426147 3.3061523 -9.59494 5.0888367q-4.852356 1.7826843 -9.441162 1.6483765q-4.588806 -0.13427734 -8.710175 -2.3848572q-4.1213684 -2.2505493 -7.4276733 -6.993042q-2.1982422 -3.1531067 -3.1996765 -6.2834167q-1.0014343 -3.1303406 -0.9866333 -6.169098q0.014770508 -3.0387573 1.0162354 -5.94635q1.0014648 -2.9075623 2.8128967 -5.6369324q1.8114014 -2.72937 4.3519897 -5.2051697q2.5405579 -2.4757996 5.693756 -4.6739197q4.71698 -3.288269 9.543671 -5.0531006q4.8266907 -1.764801 9.389893 -1.6126404q4.5631714 0.15216064 8.68454 2.4027405q4.1213684 2.2505493 7.4276733 6.993042zm-3.3070068 2.305359q-2.609314 -3.7427368 -5.8286743 -5.764984q-3.2193298 -2.0222473 -6.9706726 -2.32135q-3.7513123 -0.29907227 -8.0078125 1.1634827q-4.2565002 1.4625549 -8.947815 4.7329407q-4.691345 3.2703857 -7.5526733 6.788788q-2.8612976 3.518402 -3.903839 7.159363q-1.042572 3.6409607 -0.2624817 7.3826904q0.78009033 3.7417603 3.3536377 7.433197q2.609314 3.7427368 5.841461 5.7560425q3.2321777 2.0133362 7.0091553 2.2945251q3.776947 0.28121948 8.059082 -1.1991882q4.2821045 -1.4804382 8.97345 -4.750824q4.691345 -3.2703857 7.5359497 -6.758087q2.8446045 -3.487732 3.8615417 -7.1108093q1.0169067 -3.6230774 0.23294067 -7.3430786q-0.78396606 -3.7200012 -3.3932495 -7.4627075zm3.598236 -28.71695l3.770996 5.4089966q0.44882202 -1.7604523 1.0646667 -3.8277893q0.6158447 -2.067337 1.6387634 -4.1518097q1.0229492 -2.084488 2.542328 -4.0579224q1.5193787 -1.9734344 3.7496948 -3.5282135q3.563385 -2.4840546 7.423401 -2.7940674q3.8600159 -0.30999756 7.8931885 1.8687134q0.5862427 -2.6562195 1.4805603 -5.0891113q0.8943176 -2.4328918 2.1374817 -4.5566254q1.2431946 -2.1237335 2.869812 -3.9433594q1.6266174 -1.8196259 3.7030945 -3.2671661q2.640503 -1.8407135 5.4322205 -2.4535828q2.791748 -0.61286926 5.3944397 -0.103530884q2.6026917 0.50935364 4.910309 2.0434418q2.3075867 1.5340881 3.9875488 3.9437866l17.085571 24.50711l-3.2044678 2.2338715l-16.513672 -23.686798q-1.5369873 -2.204605 -3.2688599 -3.5686188q-1.7319031 -1.3640137 -3.6870422 -1.7914734q-1.9551392 -0.42745972 -4.123413 0.1507721q-2.168274 0.5782318 -4.5780334 2.2581024q-1.9226685 1.340332 -3.422638 3.2050018q-1.5 1.8646698 -2.58313 3.9720612q-1.0831299 2.1074066 -1.7657776 4.2975006q-0.6826477 2.190094 -0.9527588 4.206894q0.6286011 0.6284332 0.99887085 1.1322021q0.37023926 0.5037689 0.8706665 1.2215424l16.799622 24.09697l-3.2044678 2.2338562l-16.513672 -23.686798q-1.822937 -2.6147614 -3.7572021 -3.9138947q-1.9342651 -1.299118 -3.9332886 -1.5436096q-1.9989929 -0.24450684 -4.0087585 0.4517975q-2.0097961 0.6963043 -3.9837341 2.0723572q-1.8713989 1.304596 -3.2575684 3.223236q-1.3861389 1.9186554 -2.3375854 4.105667q-0.95144653 2.187027 -1.4767456 4.438858q-0.5253296 2.2518463 -0.6750183 4.222809l18.05066 25.891388l-3.2044678 2.2338867l-24.55606 -35.22258l3.2044678 -2.2338715zm104.111725 -56.501984q1.8408203 2.6404114 2.393921 5.2642517q0.5531006 2.6238556 -0.32757568 5.2948456q-0.8807373 2.6710052 -3.2988892 5.4043274q-2.4181824 2.7333221 -6.5198975 5.592682l-15.81723 11.026398l9.436371 13.535309l-3.2044678 2.2338715l-24.55603 -35.222565l19.021698 -13.260269q4.101715 -2.8593597 7.5028687 -4.1827545q3.401123 -1.3233948 6.194092 -1.2514496q2.7929993 0.07194519 5.06369 1.4984436q2.2706604 1.4264984 4.11145 4.06691zm-3.3069763 2.3053436q-1.7514648 -2.5122223 -3.6569214 -3.4695282q-1.9054871 -0.95729065 -4.216736 -0.58413696q-2.3112488 0.3731537 -5.161133 1.9408112q-2.849884 1.5676575 -6.4901733 4.1053314l-13.766388 9.596725l10.937622 15.68866l13.766388 -9.596725q1.4099731 -0.9828949 3.0211487 -2.0870209q1.6111755 -1.1041107 3.0587769 -2.3608704q1.4476013 -1.2567596 2.5755005 -2.671585q1.1278992 -1.4148102 1.6097717 -3.045929q0.48190308 -1.6311035 0.15261841 -3.4967346q-0.32922363 -1.8656464 -1.8304749 -4.018997zm60.851166 -6.1548004l-2.7165527 -3.8965302q-1.1487427 2.2864838 -2.904663 4.767639q-1.7558594 2.4811554 -3.928955 4.9102936q-2.1730957 2.4291534 -4.683777 4.674591q-2.5106812 2.245453 -5.151184 4.0861664q-3.4351807 2.3947144 -6.5942993 3.6827393q-3.1591797 1.2880096 -5.9050903 1.3927917q-2.7459717 0.10479736 -5.031372 -0.9876404q-2.2854004 -1.0924225 -3.9475098 -3.4764862q-1.6442261 -2.358429 -1.7120972 -4.996704q-0.06793213 -2.6382751 1.1984863 -5.5210114q1.2663574 -2.8827515 3.7287598 -5.9897614q2.4624634 -3.1069946 5.852051 -6.441345q3.3896484 -3.3343353 7.5681763 -6.8757935q4.178528 -3.5414734 8.929626 -7.2725525l-1.8765259 -2.691681q-1.1437988 -1.6406555 -2.6347656 -2.467865q-1.4910278 -0.8272095 -3.2456665 -0.9944458q-1.7546387 -0.16722107 -3.6793823 0.24124146q-1.9247437 0.40844727 -3.9232178 1.2302246q-1.9985352 0.8217621 -4.024536 1.9865265q-2.026001 1.1647491 -3.9487305 2.5050812q-2.5891724 1.8049622 -4.538208 3.5446014q-1.9490967 1.7396545 -3.4820557 3.4749756q-1.53302 1.735321 -2.8139648 3.5044098q-1.2808838 1.7690887 -2.5338135 3.632965l-2.609314 -3.7427216q2.9020996 -3.4325714 6.448242 -6.9522095q3.5462036 -3.519638 8.083679 -6.6828003q3.845398 -2.6806488 7.633728 -4.350189q3.788391 -1.6695251 7.250244 -1.949585q3.461853 -0.28004456 6.453491 1.0057526q2.9916382 1.2857971 5.2614136 4.541443l16.656616 23.891876l-3.178833 2.2160034zm-13.314575 -19.098114q-8.061218 6.305237 -13.406067 11.28833q-5.3449097 4.9830933 -8.255554 8.840607q-2.9105835 3.8575134 -3.5228271 6.7223206q-0.61224365 2.8648071 0.8353882 4.9412537q1.1795654 1.6919098 2.949829 2.4006195q1.7702637 0.7087097 4.001892 0.46725464q2.2316284 -0.24147034 4.8516235 -1.4012451q2.619934 -1.1597748 5.49115 -3.161316q1.6919556 -1.1794891 3.3652344 -2.6316528q1.6732788 -1.452179 3.2265015 -3.0492096q1.5532227 -1.5970459 2.9658203 -3.2865295q1.4125977 -1.6894684 2.5576172 -3.3256989q1.1449585 -1.6362305 1.967102 -3.161728q0.82214355 -1.5254822 1.229126 -2.7996063l-8.256836 -11.843399zm62.150635 -14.946106l-16.209839 -23.250992q-2.0374146 -2.922409 -4.1328735 -4.2615128q-2.095459 -1.3391113 -4.312378 -1.4317093q-2.216919 -0.09259796 -4.597229 0.91915894q-2.38031 1.0117493 -4.9695435 2.8167267q-2.9993896 2.0908966 -5.3740234 4.8319855q-2.3746948 2.7410889 -4.1608276 5.6433105q-1.7861328 2.9022217 -2.9923706 5.762039q-1.2061768 2.8598175 -1.8173218 5.1524506l17.675354 25.353073l-3.2044678 2.2338867l-24.55603 -35.22258l3.2044678 -2.2338715l4.307129 6.178055q1.0081177 -2.3789215 2.3075562 -5.132324q1.2994385 -2.7533875 3.0751343 -5.534027q1.7756348 -2.7806396 4.156555 -5.430832q2.3808594 -2.6501923 5.5340576 -4.8483276q3.5634155 -2.4840622 6.8153687 -3.4749374q3.2520142 -0.99087524 6.1071777 -0.63848114q2.8552246 0.3523941 5.2905884 1.987854q2.4354248 1.6354523 4.3656006 4.4040375l16.692383 23.943146l-3.2044678 2.2338715zm41.889587 -48.32483q2.4127197 3.4607391 2.5580444 7.111664q0.1453247 3.6509247 -1.5257568 7.2919464q-1.6710815 3.6410217 -4.9662476 7.1381073q-3.295227 3.4970856 -7.781494 6.6245117q-4.8707886 3.3954926 -9.384705 5.608917q-4.513977 2.2134247 -8.350952 3.2121277l-2.5914307 -3.7170868q2.12323 -0.45159912 4.277466 -1.0772095q2.1542969 -0.6256256 4.44104 -1.5530701q2.2866821 -0.9274597 4.699585 -2.247635q2.4129028 -1.3201752 5.027771 -3.1430206q3.6915283 -2.5734253 6.430176 -5.5301285q2.7385864 -2.9567108 4.1972656 -5.973488q1.4586792 -3.016777 1.4796753 -5.9646454q0.020996094 -2.9478683 -1.7661743 -5.5113754l-4.6467285 -6.6651154q-0.068847656 2.524086 -0.7871094 5.2914047q-0.71832275 2.7673187 -2.0969849 5.461685q-1.3787231 2.6943665 -3.4508057 5.1864243q-2.0720825 2.4920654 -4.9176636 4.475746q-3.2301025 2.2517395 -6.149536 3.391739q-2.9194946 1.1399994 -5.5108643 1.3846054q-2.5913086 0.24460602 -4.8828735 -0.3102188q-2.291565 -0.55483246 -4.261902 -1.7145004q-1.970398 -1.159668 -3.6210938 -2.789772q-1.6507568 -1.6300964 -2.99115 -3.5527267l-6.183716 -8.869736l3.2557373 -2.2696075l5.701172 8.177582q2.0552979 2.9480286 4.4401855 4.866272q2.3849487 1.9182434 5.1974487 2.5099258q2.812439 0.5916748 6.0924683 -0.30442047q3.2799683 -0.8960953 7.15094 -3.5946121q2.9993896 -2.0909042 4.9487305 -4.649765q1.9493408 -2.5588608 3.0697021 -5.3778915q1.1203613 -2.8190231 1.5612793 -5.792961q0.44091797 -2.973938 0.39782715 -5.8771286l-7.899414 -11.330696l3.2557373 -2.2696152l15.584351 22.353767z" fill-rule="nonzero"></path><path fill="#000000" fill-opacity="0.0" d="m538.96326 873.8058l624.6614 -463.02362l58.362183 78.70865l-624.6614 463.02365z" fill-rule="nonzero"></path><path fill="#ff9900" d="m628.1818 892.9729q-1.2492065 2.0928955 -2.553772 4.0323486q-1.3046265 1.9395142 -2.8775635 3.805603q-1.572937 1.8661499 -3.4956665 3.6802979q-1.9226685 1.814148 -4.408081 3.656433q-3.0628662 2.2703247 -6.2594604 3.8617554q-3.1965942 1.5914917 -6.3762817 2.392456q-3.1797485 0.8010254 -6.270569 0.77752686q-3.0907593 -0.0234375 -5.9796143 -0.95513916q-2.888916 -0.9316406 -5.4973145 -2.8491821q-2.6083984 -1.9175415 -4.8047485 -4.8795776q-2.19635 -2.9620361 -3.2733154 -6.0147095q-1.0770264 -3.0526733 -1.1290283 -6.087158q-0.051940918 -3.0344849 0.82385254 -5.998169q0.8758545 -2.963684 2.5665283 -5.772827q1.6906738 -2.809143 4.130188 -5.3953857q2.4395142 -2.5862427 5.527466 -4.875122q2.4854126 -1.8422852 4.7803345 -3.154419q2.294983 -1.3121338 4.538025 -2.2745972q2.243042 -0.96240234 4.468933 -1.6593628q2.2259521 -0.6968994 4.591919 -1.2836914l2.7919922 3.7653198q-2.1010742 0.15704346 -4.3285522 0.5633545q-2.227417 0.40631104 -4.56958 1.2088013q-2.342163 0.80255127 -4.76178 2.0514526q-2.4196777 1.2489624 -4.879944 3.0726318q-4.970825 3.6845703 -7.81073 7.4622803q-2.8399048 3.777649 -3.7511597 7.506714q-0.9113159 3.729065 0.021728516 7.374695q0.93310547 3.6455688 3.501709 7.109619q2.5686035 3.4641113 5.7769165 5.4037476q3.208374 1.9396362 7.041931 2.1516113q3.8335571 0.2119751 8.264893 -1.4194946q4.4312744 -1.6314697 9.4021 -5.31604q2.4603271 -1.8236694 4.3964233 -3.8034058q1.9361572 -1.9796753 3.4099731 -4.0057373q1.4738159 -2.026062 2.506775 -4.017029q1.032959 -1.9909668 1.7120972 -3.855835l2.7733765 3.7402344l0 0zm42.57367 -27.317322l-2.8292236 -3.8155518q-1.081604 2.3188477 -2.7645264 4.8499146q-1.6828613 2.531128 -3.7843628 5.022339q-2.1014404 2.491272 -4.5457153 4.808777q-2.444275 2.3174438 -5.0301514 4.234192q-3.3640747 2.4935913 -6.484497 3.8729858q-3.1204224 1.3793945 -5.8623047 1.564148q-2.7418823 0.18469238 -5.0583496 -0.8406372q-2.3164062 -1.0253296 -4.0474243 -3.3598633q-1.7124023 -2.3093872 -1.8572388 -4.944397q-0.14483643 -2.6350098 1.0369873 -5.5532227q1.1818848 -2.918213 3.5527954 -6.095459q2.3708496 -3.177185 5.6620483 -6.6086426q3.2911377 -3.4314575 7.364868 -7.0928955q4.0737305 -3.661438 8.714294 -7.529114l-1.9544067 -2.6356812q-1.1912231 -1.6065674 -2.7058105 -2.3899536q-1.5145264 -0.78338623 -3.2734375 -0.89941406q-1.7589111 -0.11602783 -3.6710205 0.3482666q-1.9121704 0.46435547 -3.8859253 1.3439331q-1.9738159 0.8795166 -3.965149 2.1027222q-1.991272 1.2232056 -3.8742065 2.6188965q-2.5355835 1.8795166 -4.4332275 3.6750488q-1.897583 1.7955933 -3.3793945 3.574707q-1.4818726 1.7791138 -2.7106934 3.5846558q-1.2288818 1.805542 -2.426941 3.705017l-2.7175293 -3.664917q2.8009033 -3.515442 6.243164 -7.1366577q3.4421997 -3.6212158 7.885803 -6.914978q3.765747 -2.7913208 7.5040894 -4.5703735q3.7382812 -1.7790527 7.190735 -2.159851q3.4523926 -0.3807373 6.4804688 0.8173218q3.0280151 1.1980591 5.3919067 4.3859863l17.347412 23.395142l-3.113037 2.3075562zm-13.86676 -18.70105q-7.8743896 6.5369263 -13.07196 11.673279q-5.197632 5.1363525 -7.99469 9.076782q-2.796997 3.9403687 -3.3255005 6.8216553q-0.5284424 2.8812256 0.97924805 4.9144897q1.2284546 1.6567383 3.0187378 2.3135376q1.7902832 0.6567993 4.014038 0.35046387q2.223816 -0.30633545 4.809021 -1.5418701q2.585205 -1.2354736 5.3969727 -3.3197021q1.6569214 -1.2282104 3.2872314 -2.7283936q1.63031 -1.5001831 3.1364136 -3.1416626q1.5061035 -1.6415405 2.8688965 -3.371338q1.362793 -1.7297974 2.4596558 -3.3985596q1.0968018 -1.6687622 1.8741455 -3.2174683q0.7774048 -1.548706 1.1470337 -2.8340454l-8.599243 -11.597168zm61.69214 -16.749023l-16.882141 -22.767578q-2.1218872 -2.8616333 -4.255615 -4.139038q-2.133789 -1.2774658 -4.3526 -1.3054199q-2.218811 -0.028015137 -4.5687256 1.0526123q-2.3499756 1.0805664 -4.885559 2.960083q-2.937317 2.177246 -5.231201 4.986145q-2.2938232 2.808899 -3.99469 5.76178q-1.7008667 2.9528198 -2.8231812 5.8463745q-1.1223755 2.8935547 -1.6663818 5.202881l18.408325 24.825928l-3.1381226 2.3261719l-25.574402 -34.490295l3.1381226 -2.3261108l4.485779 6.0496216q0.9383545 -2.4071655 2.1570435 -5.1970215q1.2186279 -2.789917 2.9125366 -5.6209106q1.6939087 -2.8310547 3.996643 -5.5492554q2.3027344 -2.7182617 5.390686 -5.007141q3.489624 -2.58667 6.711548 -3.671753q3.2219238 -1.085144 6.0863647 -0.81604004q2.86438 0.26904297 5.3466187 1.8327637q2.4822388 1.5637207 4.4924316 4.2747803l17.384644 23.445312l-3.1381226 2.3261108zm39.43805 -55.995422q2.4569092 3.3134766 3.6743774 6.3981934q1.2174072 3.0847168 1.37677 5.9229126q0.1593628 2.8381958 -0.6491699 5.4991455q-0.8085327 2.6609497 -2.409607 5.0925293q-1.6010742 2.4315186 -3.90448 4.702942q-2.3034058 2.2713623 -5.14032 4.3742065l-17.79956 13.193726l-25.574402 -34.490295l17.74939 -13.156494q4.242737 -3.1448975 8.497253 -5.0148315q4.2544556 -1.8699341 8.407898 -1.8562012q4.1534424 0.013793945 8.129272 2.201416q3.975769 2.187622 7.642578 7.1327515zm-3.2385864 2.4005737q-2.0846558 -2.8114624 -4.237732 -4.560852q-2.1530151 -1.7493896 -4.364258 -2.5803833q-2.2112427 -0.83099365 -4.492798 -0.8125q-2.2816162 0.018554688 -4.6326294 0.7304077q-2.3510132 0.711853 -4.739929 2.0547485q-2.388916 1.3428345 -4.849182 3.166504l-14.611206 10.830383l21.312012 28.741882l14.611206 -10.830383q3.6904297 -2.7355347 6.26001 -5.6710205q2.56958 -2.9354858 3.5471191 -6.207947q0.9776001 -3.272461 0.15100098 -6.958069q-0.8265991 -3.685669 -3.9536133 -7.902771zm51.061462 -30.613586q2.5127563 3.388794 2.7645264 7.0336914q0.25177002 3.6448975 -1.3125 7.3328247q-1.56427 3.6879272 -4.7562866 7.279297q-3.1920166 3.5913696 -7.585449 6.8479614q-4.7699585 3.5357056 -9.217712 5.8795166q-4.447754 2.343811 -8.254211 3.4537964l-2.6989136 -3.6398315q2.109253 -0.5131836 4.244507 -1.201294q2.135254 -0.6880493 4.394104 -1.6816406q2.25885 -0.9935913 4.632324 -2.3834229q2.3735352 -1.3898315 4.934265 -3.2879028q3.6151733 -2.6796875 6.2665405 -5.7147217q2.6514282 -3.0350342 4.0215454 -6.0928345q1.3701782 -3.0578003 1.3051758 -6.004822q-0.06500244 -2.9470825 -1.9262695 -5.4572754l-4.8394165 -6.5265503q0.004760742 2.5248413 -0.63256836 5.3117676q-0.6373291 2.7868652 -1.9368896 5.5200806q-1.2996216 2.7332153 -3.2982788 5.284424q-1.9986572 2.5512085 -4.7853394 4.6168213q-3.163208 2.3447266 -6.048401 3.5691528q-2.8851318 1.2244873 -5.468384 1.5444336q-2.583313 0.32000732 -4.8901978 -0.16784668q-2.3068848 -0.48779297 -4.310364 -1.5895386q-2.003479 -1.1016846 -3.7011719 -2.6829224q-1.6976929 -1.5812378 -3.093628 -3.4638672l-6.4401855 -8.685364l3.1883545 -2.3633423l5.937622 8.007568q2.140503 2.8867798 4.5805054 4.734619q2.4400635 1.8478394 5.268738 2.3572998q2.8287354 0.50946045 6.08136 -0.48168945q3.2526855 -0.99121094 7.043518 -3.8011475q2.937317 -2.177246 4.8113403 -4.791626q1.8739624 -2.61438 2.9116821 -5.4647217q1.0377197 -2.8502808 1.3917847 -5.8355713q0.3540039 -2.9853516 0.22625732 -5.8858643l-8.22699 -11.095154l3.1883545 -2.3633423l16.230652 21.889038zm73.64282 -39.299683q-1.2492065 2.0928955 -2.553772 4.0323486q-1.3046265 1.9395142 -2.8775635 3.805603q-1.572937 1.8661499 -3.4956665 3.6802979q-1.9226685 1.814148 -4.408081 3.656433q-3.0628662 2.2703247 -6.2594604 3.8617554q-3.1965942 1.5914917 -6.3762817 2.392456q-3.1797485 0.8010254 -6.270569 0.77752686q-3.0907593 -0.0234375 -5.9796143 -0.95513916q-2.888916 -0.9316406 -5.4973145 -2.8491821q-2.6083984 -1.9175415 -4.8047485 -4.8795776q-2.19635 -2.9620361 -3.2733154 -6.0147095q-1.0770264 -3.0526733 -1.1290283 -6.087158q-0.052001953 -3.0344849 0.82385254 -5.998169q0.8758545 -2.963684 2.5665283 -5.772827q1.6906738 -2.809143 4.130188 -5.3953857q2.4395142 -2.5862427 5.527466 -4.875122q2.4854126 -1.8422852 4.7803345 -3.154419q2.294983 -1.3121338 4.538025 -2.2745972q2.243042 -0.96240234 4.468933 -1.6593628q2.2259521 -0.6968994 4.591919 -1.2836914l2.7919922 3.7653198q-2.1010742 0.15698242 -4.3285522 0.5633545q-2.227478 0.40631104 -4.56958 1.2088013q-2.342163 0.80255127 -4.76178 2.0514526q-2.4196777 1.2489624 -4.879944 3.0726318q-4.970825 3.6845703 -7.81073 7.4622803q-2.8399048 3.777649 -3.7512207 7.506714q-0.9112549 3.729065 0.02178955 7.374634q0.93310547 3.64563 3.501709 7.10968q2.5686035 3.4641113 5.7769165 5.4037476q3.208374 1.9396362 7.041931 2.1516113q3.8335571 0.21191406 8.264893 -1.4194946q4.4312744 -1.6314697 9.4021 -5.31604q2.4603271 -1.8236694 4.3964233 -3.8034058q1.9361572 -1.9796753 3.4099731 -4.0057373q1.4738159 -2.026062 2.506775 -4.017029q1.032959 -1.9909668 1.7120972 -3.855835l2.7733765 3.7402344l0 0zm39.972656 -52.073975q3.4434204 4.64386 4.2648315 9.266907q0.82141113 4.623047 -0.48724365 8.996704q-1.3086548 4.373657 -4.5186157 8.38678q-3.209961 4.0131226 -7.8293457 7.437134q-4.644409 3.442688 -9.442993 5.3658447q-4.798584 1.9230957 -9.389648 1.9225464q-4.5910645 -6.1035156E-4 -8.77655 -2.130005q-4.185547 -2.1294556 -7.6289673 -6.7733154q-2.2894287 -3.0875854 -3.381775 -6.187195q-1.0923462 -3.0996704 -1.1661987 -6.13739q-0.07385254 -3.0376587 0.84246826 -5.9730225q0.91625977 -2.9353027 2.647461 -5.7161255q1.7311401 -2.7808228 4.1985474 -5.3294067q2.4674683 -2.548584 5.555359 -4.8374634q4.619385 -3.4240723 9.392883 -5.3286133q4.7734375 -1.904541 9.3394165 -1.885315q4.565918 0.019165039 8.751465 2.1486206q4.185486 2.1293945 7.6289062 6.7733154zm-3.2385864 2.4005127q-2.7174683 -3.664856 -5.994629 -5.592407q-3.2771606 -1.9274902 -7.0358887 -2.1171875q-3.758667 -0.18963623 -7.9709473 1.3961182q-4.2122803 1.5858154 -8.806519 4.991272q-4.5942383 3.4054565 -7.3519287 7.005493q-2.7576294 3.5999756 -3.6936035 7.2695312q-0.9359741 3.6695557 -0.047058105 7.38678q0.888916 3.7172241 3.5692139 7.331909q2.7175293 3.664917 6.007202 5.58313q3.289734 1.9182129 7.0735474 2.0892334q3.7837524 0.17108154 8.021179 -1.4332886q4.2373657 -1.6044312 8.831604 -5.0098877q4.5942383 -3.4054565 7.3361206 -6.974304q2.7418213 -3.5688477 3.65271 -7.2197876q0.9108887 -3.65094 0.018737793 -7.3463135q-0.8922119 -3.6953735 -3.6097412 -7.3602905zm2.7593994 -28.80774l3.9273682 5.296509q0.39733887 -1.772644 0.9526367 -3.8569336q0.5553589 -2.0842896 1.5170898 -4.19751q0.961792 -2.1132812 2.4230347 -4.130005q1.4613037 -2.0167236 3.6454468 -3.6356812q3.489624 -2.58667 7.3391724 -3.0089722q3.8496094 -0.4222412 7.944824 1.6379395q0.50860596 -2.671997 1.331604 -5.1297607q0.8230591 -2.4577637 2.0038452 -4.616638q1.1807861 -2.1589355 2.7537231 -4.0250244q1.572937 -1.8661499 3.6065063 -3.3734741q2.5858154 -1.916687 5.3586426 -2.6105957q2.7728271 -0.6939087 5.3894653 -0.26055908q2.6165771 0.43328857 4.9680786 1.8994141q2.3515015 1.4661255 4.1011353 3.8257446l17.794128 23.997559l-3.1381226 2.3261108l-17.198486 -23.194336q-1.600769 -2.1587524 -3.3717651 -3.4716797q-1.7710571 -1.3128662 -3.737976 -1.6832275q-1.9668579 -0.3703003 -4.1174927 0.270813q-2.1506348 0.6411133 -4.510498 2.3903809q-1.8828735 1.3956299 -3.327942 3.3031006q-1.4450684 1.9074707 -2.4663086 4.045349q-1.0213013 2.1379395 -1.6398315 4.346863q-0.61846924 2.2089233 -0.8297119 4.232605q0.6467285 0.60980225 1.0314941 1.1025391q0.38482666 0.49273682 0.90600586 1.1956177l17.496338 23.595947l-3.1381836 2.3261108l-17.198486 -23.194336q-1.8985596 -2.5604248 -3.869995 -3.8025513q-1.9714355 -1.2421265 -3.9768677 -1.4283447q-2.0054321 -0.18615723 -3.9941406 0.5683594q-1.9887085 0.7545166 -3.921814 2.187378q-1.8327026 1.3584595 -3.1623535 3.3165894q-1.3297119 1.9580688 -2.217041 4.171753q-0.8873291 2.213623 -1.3467407 4.4796753q-0.45941162 2.2660522 -0.5515747 4.2404175l18.799194 25.353088l-3.1381226 2.3261108l-25.574402 -34.490234l3.1381226 -2.3261108zm102.425964 -59.506836q1.9171143 2.5855103 2.5465088 5.1920166q0.62939453 2.6064453 -0.17303467 5.301819q-0.8024292 2.6953125 -3.1400146 5.4977417q-2.3375854 2.8024292 -6.354431 5.779846l-15.489868 11.4817505l9.827698 13.253906l-3.1381226 2.3261108l-25.574402 -34.490295l18.62799 -13.8078q4.0168457 -2.977478 7.378174 -4.399231q3.361267 -1.421814 6.1553345 -1.4312744q2.7940674 -0.009399414 5.10553 1.3502197q2.3114624 1.3596802 4.2286377 3.9451904zm-3.2385864 2.4005737q-1.8240967 -2.460022 -3.756775 -3.3613281q-1.9327393 -0.9013672 -4.232239 -0.46105957q-2.2995605 0.44024658 -5.102661 2.090149q-2.8031616 1.6499634 -6.368042 4.2924194l-13.481506 9.992981l11.391235 15.362488l13.481445 -9.992981q1.3807983 -1.0234985 2.9591675 -2.1740112q1.5783691 -1.1505127 2.9888306 -2.4488525q1.4104004 -1.2982788 2.496643 -2.7453003q1.0862427 -1.4469604 1.5203247 -3.0913086q0.43414307 -1.6443481 0.050598145 -3.4995117q-0.38354492 -1.8551025 -1.9470215 -3.963684zm60.649475 -7.9241333l-2.8291016 -3.8154907q-1.081665 2.3187866 -2.7646484 4.8499146q-1.6828613 2.531067 -3.7843018 5.022339q-2.1014404 2.491272 -4.5457764 4.808716q-2.4442139 2.317505 -5.0300293 4.234253q-3.3641357 2.4935913 -6.484619 3.8729858q-3.1203613 1.3793945 -5.8623047 1.5640869q-2.7418213 0.18475342 -5.0583496 -0.8406372q-2.3164062 -1.0253296 -4.0473633 -3.3598022q-1.7124023 -2.3093872 -1.8572998 -4.944397q-0.14477539 -2.6350098 1.0371094 -5.5532837q1.1817627 -2.918213 3.5527344 -6.095398q2.3708496 -3.177246 5.6619873 -6.6086426q3.2911377 -3.4314575 7.364868 -7.0928955q4.0737305 -3.661438 8.714355 -7.529114l-1.9544678 -2.6357422q-1.1911621 -1.6065063 -2.7058105 -2.3898926q-1.5145264 -0.78338623 -3.2734375 -0.89941406q-1.7589111 -0.11608887 -3.6710205 0.3482666q-1.9121094 0.46429443 -3.8858643 1.3438721q-1.973877 0.87957764 -3.965088 2.1027832q-1.991333 1.2232056 -3.8742676 2.6188965q-2.5356445 1.8794556 -4.4332275 3.6750488q-1.897583 1.7955322 -3.3793945 3.574707q-1.4819336 1.7791138 -2.7106934 3.5846558q-1.2288818 1.805542 -2.427002 3.704956l-2.7174683 -3.664856q2.8009644 -3.515442 6.243103 -7.1366577q3.4422607 -3.6212158 7.8858643 -6.914978q3.765747 -2.7913818 7.5040283 -4.5704346q3.7382812 -1.7790527 7.190796 -2.15979q3.4523926 -0.3807373 6.4804688 0.8173218q3.0280762 1.197998 5.3918457 4.3859863l17.347412 23.395142l-3.113037 2.307495zm-13.866699 -18.70105q-7.8743896 6.5369873 -13.0720215 11.67334q-5.197632 5.1362915 -7.994629 9.076721q-2.796997 3.9404297 -3.3254395 6.8216553q-0.52856445 2.8812866 0.979126 4.914551q1.2285156 1.6567383 3.0187988 2.3135376q1.7902832 0.6567993 4.014038 0.35046387q2.223755 -0.30633545 4.80896 -1.5418701q2.585205 -1.2355347 5.3969727 -3.3197021q1.6569824 -1.2282104 3.2872314 -2.7283936q1.6303711 -1.5001831 3.1364746 -3.1417236q1.5061035 -1.6414795 2.8688965 -3.3712769q1.362793 -1.7297974 2.4595947 -3.3986206q1.0968018 -1.6687622 1.8742676 -3.2174683q0.77734375 -1.548706 1.1469727 -2.8340454l-8.599243 -11.597168zm61.69214 -16.748962l-16.88208 -22.767609q-2.1219482 -2.8616333 -4.2557373 -4.1390686q-2.133789 -1.2774048 -4.352539 -1.3053894q-2.218872 -0.02798462 -4.5687256 1.0525818q-2.3499756 1.0805969 -4.88562 2.9601135q-2.9372559 2.177246 -5.231201 4.986145q-2.2938232 2.8089294 -3.994629 5.7617493q-1.7009277 2.9528198 -2.8232422 5.8463745q-1.1223145 2.8936157 -1.6663818 5.202881l18.408325 24.825989l-3.1380615 2.3261108l-25.574463 -34.490234l3.1381836 -2.3261108l4.485718 6.0495605q0.9383545 -2.4071045 2.1571045 -5.1970215q1.2186279 -2.789917 2.9124756 -5.6209106q1.6939697 -2.8309937 3.996704 -5.5492554q2.3027344 -2.7182312 5.390625 -5.007141q3.489624 -2.5866394 6.711548 -3.671753q3.2219238 -1.085083 6.086426 -0.81604004q2.86438 0.2690735 5.3465576 1.8327942q2.4822998 1.5637512 4.4924316 4.2747498l17.384644 23.445374l-3.1380615 2.3261108zm40.464844 -49.521393q2.5128174 3.3887634 2.7645264 7.0336914q0.25183105 3.644928 -1.3125 7.332855q-1.564209 3.6879272 -4.7562256 7.2792664q-3.1920166 3.5913696 -7.585449 6.847931q-4.7700195 3.5357056 -9.217773 5.8795166q-4.447754 2.343811 -8.254272 3.4537964l-2.6988525 -3.6397705q2.109253 -0.5132446 4.244507 -1.201294q2.135254 -0.68807983 4.394165 -1.6816711q2.258789 -0.9935913 4.632324 -2.3834229q2.3735352 -1.389801 4.934204 -3.2879028q3.6152344 -2.6796875 6.2666016 -5.7147217q2.6513672 -3.0350342 4.0214844 -6.0928345q1.3701172 -3.0578003 1.3051758 -6.0048523q-0.064941406 -2.947052 -1.9262695 -5.457245l-4.8393555 -6.5265503q0.004760742 2.5248718 -0.63256836 5.3117676q-0.6373291 2.7868958 -1.9368896 5.520111q-1.2996826 2.7331848 -3.2983398 5.2843933q-1.9986572 2.5512085 -4.7852783 4.616791q-3.163208 2.3447266 -6.048462 3.5692139q-2.8851318 1.2244568 -5.468384 1.5444336q-2.583252 0.3199463 -4.8901367 -0.1678772q-2.3068848 -0.48779297 -4.310425 -1.589508q-2.003418 -1.1017456 -3.7011719 -2.682953q-1.6976318 -1.5812378 -3.093628 -3.4638977l-6.4401855 -8.685333l3.1883545 -2.3633118l5.937622 8.007568q2.140503 2.8867188 4.5805664 4.7345886q2.4399414 1.8478394 5.2686768 2.3572998q2.8287354 0.50949097 6.081421 -0.48168945q3.2526855 -0.99121094 7.043457 -3.8011475q2.937378 -2.177246 4.8114014 -4.7916565q1.8739014 -2.61438 2.911621 -5.4646606q1.0377197 -2.8502808 1.3917236 -5.8356323q0.35412598 -2.985321 0.22631836 -5.8858643l-8.226929 -11.095123l3.1883545 -2.3633118l16.23059 21.889008z" fill-rule="nonzero"></path><path fill="#ff00ff" d="m944.0001 788.2765l46.978943 3.6621094E-4l14.516968 -49.276855l14.517029 49.276855l46.97888 -3.6621094E-4l-38.006836 30.454407l14.517578 49.276672l-38.006653 -30.455017l-38.00653 30.455017l14.517578 -49.276672z" fill-rule="nonzero"></path><path stroke="#ff00ff" stroke-width="1.0" stroke-linejoin="round" stroke-linecap="butt" d="m944.0001 788.2765l46.978943 3.6621094E-4l14.516968 -49.276855l14.517029 49.276855l46.97888 -3.6621094E-4l-38.006836 30.454407l14.517578 49.276672l-38.006653 -30.455017l-38.00653 30.455017l14.517578 -49.276672z" fill-rule="nonzero"></path><path fill="#ff00ff" d="m454.00012 344.2765l46.978943 3.6621094E-4l14.516968 -49.276855l14.517029 49.276855l46.978943 -3.6621094E-4l-38.006958 30.454437l14.517578 49.27661l-38.00659 -30.454956l-38.00656 30.454956l14.517609 -49.27661z" fill-rule="nonzero"></path><path stroke="#ff00ff" stroke-width="1.0" stroke-linejoin="round" stroke-linecap="butt" d="m454.00012 344.2765l46.978943 3.6621094E-4l14.516968 -49.276855l14.517029 49.276855l46.978943 -3.6621094E-4l-38.006958 30.454437l14.517578 49.27661l-38.00659 -30.454956l-38.00656 30.454956l14.517609 -49.27661z" fill-rule="nonzero"></path><path fill="#ff00ff" d="m642.0001 583.2765l46.978943 3.6621094E-4l14.516968 -49.276855l14.517029 49.276855l46.978943 -3.6621094E-4l-38.006958 30.454407l14.517578 49.276672l-38.00659 -30.455017l-38.00653 30.455017l14.517578 -49.276672z" fill-rule="nonzero"></path><path stroke="#ff00ff" stroke-width="1.0" stroke-linejoin="round" stroke-linecap="butt" d="m642.0001 583.2765l46.978943 3.6621094E-4l14.516968 -49.276855l14.517029 49.276855l46.978943 -3.6621094E-4l-38.006958 30.454407l14.517578 49.276672l-38.00659 -30.455017l-38.00653 30.455017l14.517578 -49.276672z" fill-rule="nonzero"></path><path fill="#ff00ff" d="m242.00014 132.2765l46.978928 3.3569336E-4l14.516998 -49.27684l14.516998 49.27684l46.978943 -3.3569336E-4l-38.006958 30.454407l14.517578 49.27664l-38.00656 -30.454987l-38.00659 30.454987l14.517609 -49.27664z" fill-rule="nonzero"></path><path stroke="#ff00ff" stroke-width="1.0" stroke-linejoin="round" stroke-linecap="butt" d="m242.00014 132.2765l46.978928 3.3569336E-4l14.516998 -49.27684l14.516998 49.27684l46.978943 -3.3569336E-4l-38.006958 30.454407l14.517578 49.27664l-38.00656 -30.454987l-38.00659 30.454987l14.517609 -49.27664z" fill-rule="nonzero"></path><path fill="#ffff00" d="m101.0 251.50394l0 0c0 -35.624542 23.281197 -64.50394 52.0 -64.50394c28.718811 0 52.0 28.879395 52.0 64.50394c0 35.624542 -23.281189 64.50394 -52.0 64.50394c-28.718803 0 -52.0 -28.879395 -52.0 -64.50394z" fill-rule="nonzero"></path><path fill="#cbcb00" d="m130.92407 232.21248c0 -3.7108917 2.4251251 -6.719162 5.4166718 -6.719162c2.9915466 0 5.4166565 3.0082703 5.4166565 6.719162c0 3.7108917 -2.4251099 6.719162 -5.4166565 6.719162c-2.9915466 0 -5.4166718 -3.0082703 -5.4166718 -6.719162m33.318527 0c0 -3.7108917 2.4251099 -6.719162 5.4166565 -6.719162c2.9915466 0 5.4166718 3.0082703 5.4166718 6.719162c0 3.7108917 -2.4251251 6.719162 -5.4166718 6.719162c-2.9915466 0 -5.4166565 -3.0082703 -5.4166565 -6.719162" fill-rule="nonzero"></path><path fill="#000000" fill-opacity="0.0" d="m124.81566 279.63452q28.184341 24.010956 56.302856 0" fill-rule="nonzero"></path><path fill="#000000" fill-opacity="0.0" d="m101.0 251.50394l0 0c0 -35.624542 23.281197 -64.50394 52.0 -64.50394c28.718811 0 52.0 28.879395 52.0 64.50394c0 35.624542 -23.281189 64.50394 -52.0 64.50394c-28.718803 0 -52.0 -28.879395 -52.0 -64.50394z" fill-rule="nonzero"></path><path stroke="#000000" stroke-width="1.0" stroke-linejoin="round" stroke-linecap="butt" d="m130.92407 232.21248c0 -3.7108917 2.4251251 -6.719162 5.4166718 -6.719162c2.9915466 0 5.4166565 3.0082703 5.4166565 6.719162c0 3.7108917 -2.4251099 6.719162 -5.4166565 6.719162c-2.9915466 0 -5.4166718 -3.0082703 -5.4166718 -6.719162m33.318527 0c0 -3.7108917 2.4251099 -6.719162 5.4166565 -6.719162c2.9915466 0 5.4166718 3.0082703 5.4166718 6.719162c0 3.7108917 -2.4251251 6.719162 -5.4166718 6.719162c-2.9915466 0 -5.4166565 -3.0082703 -5.4166565 -6.719162" fill-rule="nonzero"></path><path stroke="#000000" stroke-width="1.0" stroke-linejoin="round" stroke-linecap="butt" d="m124.81566 279.63452q28.184341 24.010956 56.302856 0" fill-rule="nonzero"></path><path stroke="#000000" stroke-width="1.0" stroke-linejoin="round" stroke-linecap="butt" d="m101.0 251.50394l0 0c0 -35.624542 23.281197 -64.50394 52.0 -64.50394c28.718811 0 52.0 28.879395 52.0 64.50394c0 35.624542 -23.281189 64.50394 -52.0 64.50394c-28.718803 0 -52.0 -28.879395 -52.0 -64.50394z" fill-rule="nonzero"></path><path fill="#ffff00" d="m163.81364 555.50397l0 0c0 -35.624573 23.281204 -64.50397 52.0 -64.50397c28.718811 0 52.000015 28.879395 52.000015 64.50397c0 35.62451 -23.281204 64.50391 -52.000015 64.50391c-28.718796 0 -52.0 -28.879395 -52.0 -64.50391z" fill-rule="nonzero"></path><path fill="#cbcb00" d="m193.73772 536.21246c0 -3.7108765 2.4251251 -6.719116 5.4166718 -6.719116c2.9915466 0 5.4166718 3.0082397 5.4166718 6.719116c0 3.7109375 -2.4251251 6.7191772 -5.4166718 6.7191772c-2.9915466 0 -5.4166718 -3.0082397 -5.4166718 -6.7191772m33.318527 0c0 -3.7108765 2.4251251 -6.719116 5.4166565 -6.719116c2.9915466 0 5.4166718 3.0082397 5.4166718 6.719116c0 3.7109375 -2.4251251 6.7191772 -5.4166718 6.7191772c-2.9915314 0 -5.4166565 -3.0082397 -5.4166565 -6.7191772" fill-rule="nonzero"></path><path fill="#000000" fill-opacity="0.0" d="m187.6293 583.6345q28.184341 24.010986 56.302856 0" fill-rule="nonzero"></path><path fill="#000000" fill-opacity="0.0" d="m163.81364 555.50397l0 0c0 -35.624573 23.281204 -64.50397 52.0 -64.50397c28.718811 0 52.000015 28.879395 52.000015 64.50397c0 35.62451 -23.281204 64.50391 -52.000015 64.50391c-28.718796 0 -52.0 -28.879395 -52.0 -64.50391z" fill-rule="nonzero"></path><path stroke="#000000" stroke-width="1.0" stroke-linejoin="round" stroke-linecap="butt" d="m193.73772 536.21246c0 -3.7108765 2.4251251 -6.719116 5.4166718 -6.719116c2.9915466 0 5.4166718 3.0082397 5.4166718 6.719116c0 3.7109375 -2.4251251 6.7191772 -5.4166718 6.7191772c-2.9915466 0 -5.4166718 -3.0082397 -5.4166718 -6.7191772m33.318527 0c0 -3.7108765 2.4251251 -6.719116 5.4166565 -6.719116c2.9915466 0 5.4166718 3.0082397 5.4166718 6.719116c0 3.7109375 -2.4251251 6.7191772 -5.4166718 6.7191772c-2.9915314 0 -5.4166565 -3.0082397 -5.4166565 -6.7191772" fill-rule="nonzero"></path><path stroke="#000000" stroke-width="1.0" stroke-linejoin="round" stroke-linecap="butt" d="m187.6293 583.6345q28.184341 24.010986 56.302856 0" fill-rule="nonzero"></path><path stroke="#000000" stroke-width="1.0" stroke-linejoin="round" stroke-linecap="butt" d="m163.81364 555.50397l0 0c0 -35.624573 23.281204 -64.50397 52.0 -64.50397c28.718811 0 52.000015 28.879395 52.000015 64.50397c0 35.62451 -23.281204 64.50391 -52.000015 64.50391c-28.718796 0 -52.0 -28.879395 -52.0 -64.50391z" fill-rule="nonzero"></path><path fill="#ffff00" d="m390.0 797.50397l0 0c0 -35.624573 23.281189 -64.50397 52.0 -64.50397c28.718811 0 52.0 28.879395 52.0 64.50397c0 35.62451 -23.281189 64.50391 -52.0 64.50391c-28.718811 0 -52.0 -28.879395 -52.0 -64.50391z" fill-rule="nonzero"></path><path fill="#cbcb00" d="m419.92407 778.21246c0 -3.7108765 2.4251404 -6.719116 5.4166565 -6.719116c2.9915466 0 5.416687 3.0082397 5.416687 6.719116c0 3.7109375 -2.4251404 6.7191772 -5.416687 6.7191772c-2.991516 0 -5.4166565 -3.0082397 -5.4166565 -6.7191772m33.318512 0c0 -3.7108765 2.4251404 -6.719116 5.416687 -6.719116c2.991516 0 5.4166565 3.0082397 5.4166565 6.719116c0 3.7109375 -2.4251404 6.7191772 -5.4166565 6.7191772c-2.9915466 0 -5.416687 -3.0082397 -5.416687 -6.7191772" fill-rule="nonzero"></path><path fill="#000000" fill-opacity="0.0" d="m413.81567 825.6345q28.184326 24.010986 56.302856 0" fill-rule="nonzero"></path><path fill="#000000" fill-opacity="0.0" d="m390.0 797.50397l0 0c0 -35.624573 23.281189 -64.50397 52.0 -64.50397c28.718811 0 52.0 28.879395 52.0 64.50397c0 35.62451 -23.281189 64.50391 -52.0 64.50391c-28.718811 0 -52.0 -28.879395 -52.0 -64.50391z" fill-rule="nonzero"></path><path stroke="#000000" stroke-width="1.0" stroke-linejoin="round" stroke-linecap="butt" d="m419.92407 778.21246c0 -3.7108765 2.4251404 -6.719116 5.4166565 -6.719116c2.9915466 0 5.416687 3.0082397 5.416687 6.719116c0 3.7109375 -2.4251404 6.7191772 -5.416687 6.7191772c-2.991516 0 -5.4166565 -3.0082397 -5.4166565 -6.7191772m33.318512 0c0 -3.7108765 2.4251404 -6.719116 5.416687 -6.719116c2.991516 0 5.4166565 3.0082397 5.4166565 6.719116c0 3.7109375 -2.4251404 6.7191772 -5.4166565 6.7191772c-2.9915466 0 -5.416687 -3.0082397 -5.416687 -6.7191772" fill-rule="nonzero"></path><path stroke="#000000" stroke-width="1.0" stroke-linejoin="round" stroke-linecap="butt" d="m413.81567 825.6345q28.184326 24.010986 56.302856 0" fill-rule="nonzero"></path><path stroke="#000000" stroke-width="1.0" stroke-linejoin="round" stroke-linecap="butt" d="m390.0 797.50397l0 0c0 -35.624573 23.281189 -64.50397 52.0 -64.50397c28.718811 0 52.0 28.879395 52.0 64.50397c0 35.62451 -23.281189 64.50391 -52.0 64.50391c-28.718811 0 -52.0 -28.879395 -52.0 -64.50391z" fill-rule="nonzero"></path><path fill="#ffff00" d="m799.0 862.50397l0 0c0 -35.624573 23.281189 -64.50397 52.0 -64.50397c28.718811 0 52.0 28.879395 52.0 64.50397c0 35.62451 -23.281189 64.50391 -52.0 64.50391c-28.718811 0 -52.0 -28.879395 -52.0 -64.50391z" fill-rule="nonzero"></path><path fill="#cbcb00" d="m828.9241 843.21246c0 -3.7108765 2.4251099 -6.719116 5.416687 -6.719116c2.991516 0 5.416626 3.0082397 5.416626 6.719116c0 3.7109375 -2.4251099 6.7191772 -5.416626 6.7191772c-2.9915771 0 -5.416687 -3.0082397 -5.416687 -6.7191772m33.318542 0c0 -3.7108765 2.4251099 -6.719116 5.416626 -6.719116c2.9915771 0 5.416687 3.0082397 5.416687 6.719116c0 3.7109375 -2.4251099 6.7191772 -5.416687 6.7191772c-2.991516 0 -5.416626 -3.0082397 -5.416626 -6.7191772" fill-rule="nonzero"></path><path fill="#000000" fill-opacity="0.0" d="m822.8157 890.6345q28.184326 24.010986 56.302856 0" fill-rule="nonzero"></path><path fill="#000000" fill-opacity="0.0" d="m799.0 862.50397l0 0c0 -35.624573 23.281189 -64.50397 52.0 -64.50397c28.718811 0 52.0 28.879395 52.0 64.50397c0 35.62451 -23.281189 64.50391 -52.0 64.50391c-28.718811 0 -52.0 -28.879395 -52.0 -64.50391z" fill-rule="nonzero"></path><path stroke="#000000" stroke-width="1.0" stroke-linejoin="round" stroke-linecap="butt" d="m828.9241 843.21246c0 -3.7108765 2.4251099 -6.719116 5.416687 -6.719116c2.991516 0 5.416626 3.0082397 5.416626 6.719116c0 3.7109375 -2.4251099 6.7191772 -5.416626 6.7191772c-2.9915771 0 -5.416687 -3.0082397 -5.416687 -6.7191772m33.318542 0c0 -3.7108765 2.4251099 -6.719116 5.416626 -6.719116c2.9915771 0 5.416687 3.0082397 5.416687 6.719116c0 3.7109375 -2.4251099 6.7191772 -5.416687 6.7191772c-2.991516 0 -5.416626 -3.0082397 -5.416626 -6.7191772" fill-rule="nonzero"></path><path stroke="#000000" stroke-width="1.0" stroke-linejoin="round" stroke-linecap="butt" d="m822.8157 890.6345q28.184326 24.010986 56.302856 0" fill-rule="nonzero"></path><path stroke="#000000" stroke-width="1.0" stroke-linejoin="round" stroke-linecap="butt" d="m799.0 862.50397l0 0c0 -35.624573 23.281189 -64.50397 52.0 -64.50397c28.718811 0 52.0 28.879395 52.0 64.50397c0 35.62451 -23.281189 64.50391 -52.0 64.50391c-28.718811 0 -52.0 -28.879395 -52.0 -64.50391z" fill-rule="nonzero"></path><path fill="#cfe2f3" d="m432.02493 27.0l15.033234 34.90335l-6.20105 4.116066l18.935425 29.908958l-6.2010193 4.9943924l23.409729 50.075966l-39.700287 -38.376457l7.571411 -5.3273544l-24.667084 -24.581596l8.83905 -7.594925l-26.044342 -25.787148z" fill-rule="nonzero"></path><path stroke="#000000" stroke-width="1.0" stroke-linejoin="round" stroke-linecap="butt" d="m432.02493 27.0l15.033234 34.90335l-6.20105 4.116066l18.935425 29.908958l-6.2010193 4.9943924l23.409729 50.075966l-39.700287 -38.376457l7.571411 -5.3273544l-24.667084 -24.581596l8.83905 -7.594925l-26.044342 -25.787148z" fill-rule="nonzero"></path><path fill="#cfe2f3" d="m365.02493 390.0l15.033234 34.90335l-6.20105 4.1160583l18.935425 29.908966l-6.2010193 4.994385l23.409729 50.07596l-39.700287 -38.376434l7.571411 -5.327362l-24.667084 -24.581604l8.83905 -7.5949097l-26.044342 -25.78714z" fill-rule="nonzero"></path><path stroke="#000000" stroke-width="1.0" stroke-linejoin="round" stroke-linecap="butt" d="m365.02493 390.0l15.033234 34.90335l-6.20105 4.1160583l18.935425 29.908966l-6.2010193 4.994385l23.409729 50.07596l-39.700287 -38.376434l7.571411 -5.327362l-24.667084 -24.581604l8.83905 -7.5949097l-26.044342 -25.78714z" fill-rule="nonzero"></path><path fill="#cfe2f3" d="m632.02496 227.0l15.033203 34.90335l-6.20105 4.1160583l18.935425 29.908966l-6.20105 4.994385l23.40979 50.07599l-39.700317 -38.376465l7.571411 -5.327362l-24.667053 -24.581604l8.838989 -7.5949097l-26.044312 -25.787155z" fill-rule="nonzero"></path><path stroke="#000000" stroke-width="1.0" stroke-linejoin="round" stroke-linecap="butt" d="m632.02496 227.0l15.033203 34.90335l-6.20105 4.1160583l18.935425 29.908966l-6.20105 4.994385l23.40979 50.07599l-39.700317 -38.376465l7.571411 -5.327362l-24.667053 -24.581604l8.838989 -7.5949097l-26.044312 -25.787155z" fill-rule="nonzero"></path><path fill="#cfe2f3" d="m573.02496 644.0l15.033203 34.90332l-6.20105 4.116089l18.935425 29.908936l-6.20105 4.994446l23.40979 50.075928l-39.700317 -38.376465l7.571411 -5.3273315l-24.667053 -24.581604l8.838989 -7.5949097l-26.044312 -25.78717z" fill-rule="nonzero"></path><path stroke="#000000" stroke-width="1.0" stroke-linejoin="round" stroke-linecap="butt" d="m573.02496 644.0l15.033203 34.90332l-6.20105 4.116089l18.935425 29.908936l-6.20105 4.994446l23.40979 50.075928l-39.700317 -38.376465l7.571411 -5.3273315l-24.667053 -24.581604l8.838989 -7.5949097l-26.044312 -25.78717z" fill-rule="nonzero"></path><path fill="#cfe2f3" d="m828.02496 457.0l15.033203 34.90335l-6.20105 4.1160583l18.935425 29.908936l-6.20105 4.994446l23.40979 50.075928l-39.700317 -38.376465l7.571411 -5.3273315l-24.667053 -24.581604l8.838989 -7.5949097l-26.044312 -25.78714z" fill-rule="nonzero"></path><path stroke="#000000" stroke-width="1.0" stroke-linejoin="round" stroke-linecap="butt" d="m828.02496 457.0l15.033203 34.90335l-6.20105 4.1160583l18.935425 29.908936l-6.20105 4.994446l23.40979 50.075928l-39.700317 -38.376465l7.571411 -5.3273315l-24.667053 -24.581604l8.838989 -7.5949097l-26.044312 -25.78714z" fill-rule="nonzero"></path><path fill="#cfe2f3" d="m1131.0249 706.5197l15.033203 34.90332l-6.2009277 4.116089l18.935303 29.908936l-6.2009277 4.994385l23.409668 50.07599l-39.700317 -38.376465l7.571533 -5.3273315l-24.667114 -24.581604l8.838989 -7.5949707l-26.044312 -25.78711z" fill-rule="nonzero"></path><path stroke="#000000" stroke-width="1.0" stroke-linejoin="round" stroke-linecap="butt" d="m1131.0249 706.5197l15.033203 34.90332l-6.2009277 4.116089l18.935303 29.908936l-6.2009277 4.994385l23.409668 50.07599l-39.700317 -38.376465l7.571533 -5.3273315l-24.667114 -24.581604l8.838989 -7.5949707l-26.044312 -25.78711z" fill-rule="nonzero"></path><path fill="#ff0000" d="m563.9921 95.98425l0 0c-25.953064 0 -46.992126 -16.561943 -46.992126 -36.992126c0 -20.430187 21.039062 -36.992126 46.992126 -36.992126l0 0c-14.791138 8.7326565 -23.496094 22.437698 -23.496094 36.992126c0 14.554428 8.704956 28.259468 23.496094 36.992126z" fill-rule="nonzero"></path><path stroke="#000000" stroke-width="1.0" stroke-linejoin="round" stroke-linecap="butt" d="m563.9921 95.98425l0 0c-25.953064 0 -46.992126 -16.561943 -46.992126 -36.992126c0 -20.430187 21.039062 -36.992126 46.992126 -36.992126l0 0c-14.791138 8.7326565 -23.496094 22.437698 -23.496094 36.992126c0 14.554428 8.704956 28.259468 23.496094 36.992126z" fill-rule="nonzero"></path><path fill="#ff0000" d="m764.9921 268.98425l0 0c-25.953064 0 -46.992126 -16.561935 -46.992126 -36.992126c0 -20.430191 21.039062 -36.992126 46.992126 -36.992126l0 0c-14.791138 8.732651 -23.496094 22.437698 -23.496094 36.992126c0 14.554428 8.704956 28.25946 23.496094 36.992126z" fill-rule="nonzero"></path><path stroke="#000000" stroke-width="1.0" stroke-linejoin="round" stroke-linecap="butt" d="m764.9921 268.98425l0 0c-25.953064 0 -46.992126 -16.561935 -46.992126 -36.992126c0 -20.430191 21.039062 -36.992126 46.992126 -36.992126l0 0c-14.791138 8.732651 -23.496094 22.437698 -23.496094 36.992126c0 14.554428 8.704956 28.25946 23.496094 36.992126z" fill-rule="nonzero"></path><path fill="#ff0000" d="m966.9921 507.98425l0 0c-25.953064 0 -46.992126 -16.56195 -46.992126 -36.992126c0 -20.430176 21.039062 -36.992126 46.992126 -36.992126l0 0c-14.791138 8.732666 -23.496094 22.437714 -23.496094 36.992126c0 14.554413 8.704956 28.25946 23.496094 36.992126z" fill-rule="nonzero"></path><path stroke="#000000" stroke-width="1.0" stroke-linejoin="round" stroke-linecap="butt" d="m966.9921 507.98425l0 0c-25.953064 0 -46.992126 -16.56195 -46.992126 -36.992126c0 -20.430176 21.039062 -36.992126 46.992126 -36.992126l0 0c-14.791138 8.732666 -23.496094 22.437714 -23.496094 36.992126c0 14.554413 8.704956 28.25946 23.496094 36.992126z" fill-rule="nonzero"></path><path fill="#ff9900" d="m145.91261 818.1257l0 0c-2.313507 37.294434 -26.863815 66.11743 -54.83465 64.37793c-27.970825 -1.7394409 -48.7702 -33.38269 -46.456688 -70.677124l0 0c10.63731 21.998291 28.62481 35.674194 48.551178 36.91339c19.926369 1.2391968 39.46582 -10.102905 52.740158 -30.614197z" fill-rule="nonzero"></path><path stroke="#000000" stroke-width="1.0" stroke-linejoin="round" stroke-linecap="butt" d="m145.91261 818.1257l0 0c-2.313507 37.294434 -26.863815 66.11743 -54.83465 64.37793c-27.970825 -1.7394409 -48.7702 -33.38269 -46.456688 -70.677124l0 0c10.63731 21.998291 28.62481 35.674194 48.551178 36.91339c19.926369 1.2391968 39.46582 -10.102905 52.740158 -30.614197z" fill-rule="nonzero"></path><path fill="#0000ff" d="m1059.0 103.157326l40.321655 -42.157326l-3.97583 38.70478l45.770874 -6.309059l-18.178345 20.773384l47.612427 5.9747086l-37.808228 16.99376l43.257446 20.460846l-51.59912 -2.5294342l14.169922 37.45459l-44.6875 -26.44281l-8.3741455 38.3777l-29.412476 -34.903366l-22.175903 48.44458l-8.341553 -43.414764l-31.990906 14.464325l9.804199 -26.748108l-59.929993 4.724533l38.85913 -20.439026l-40.321655 -22.968475l50.125854 -7.2539673l-46.117493 -38.682983l75.204956 29.25573l11.266663 -29.25573z" fill-rule="nonzero"></path><path stroke="#000000" stroke-width="1.0" stroke-linejoin="round" stroke-linecap="butt" d="m1059.0 103.157326l40.321655 -42.157326l-3.97583 38.70478l45.770874 -6.309059l-18.178345 20.773384l47.612427 5.9747086l-37.808228 16.99376l43.257446 20.460846l-51.59912 -2.5294342l14.169922 37.45459l-44.6875 -26.44281l-8.3741455 38.3777l-29.412476 -34.903366l-22.175903 48.44458l-8.341553 -43.414764l-31.990906 14.464325l9.804199 -26.748108l-59.929993 4.724533l38.85913 -20.439026l-40.321655 -22.968475l50.125854 -7.2539673l-46.117493 -38.682983l75.204956 29.25573l11.266663 -29.25573z" fill-rule="nonzero"></path><path fill="#ff9900" d="m1083.6359 330.09473l7.859131 -57.80429l19.523682 33.65564l33.331177 -31.997772l-2.5046387 27.490326l42.03882 -23.139893l-20.610107 35.965424l47.026 -8.859039l-43.2406 28.270142l33.4729 21.982483l-51.697876 4.8586426l15.772339 35.97519l-44.308228 -10.962341l10.518799 52.230408l-32.258423 -30.229858l-17.388794 30.50055l-7.7822266 -27.404785l-45.71985 39.03476l19.436157 -39.370728l-46.123596 5.1049194l36.30011 -35.321136l-60.046814 -4.205841l78.04559 -20.512909l-8.072144 -30.293243z" fill-rule="nonzero"></path><path stroke="#000000" stroke-width="1.0" stroke-linejoin="round" stroke-linecap="butt" d="m1083.6359 330.09473l7.859131 -57.80429l19.523682 33.65564l33.331177 -31.997772l-2.5046387 27.490326l42.03882 -23.139893l-20.610107 35.965424l47.026 -8.859039l-43.2406 28.270142l33.4729 21.982483l-51.697876 4.8586426l15.772339 35.97519l-44.308228 -10.962341l10.518799 52.230408l-32.258423 -30.229858l-17.388794 30.50055l-7.7822266 -27.404785l-45.71985 39.03476l19.436157 -39.370728l-46.123596 5.1049194l36.30011 -35.321136l-60.046814 -4.205841l78.04559 -20.512909l-8.072144 -30.293243z" fill-rule="nonzero"></path><path fill="#ff9900" d="m116.50268 49.01869l21.192924 -22.018688l-2.089676 20.215431l24.056992 -3.295208l-9.554474 10.849899l25.024979 3.1205788l-19.871933 8.875809l22.735992 10.686653l-27.120346 -1.3211212l7.447708 19.56247l-23.48761 -13.811035l-4.401428 20.044601l-15.459114 -18.229958l-11.65554 25.302513l-4.3843536 -22.675453l-16.81427 7.5546875l5.153038 -13.970482l-31.499008 2.4676132l20.424248 -10.67527l-21.192932 -11.996384l26.34597 -3.7887344l-24.239204 -20.204044l39.527496 15.280212l5.9217224 -15.280212z" fill-rule="nonzero"></path><path stroke="#000000" stroke-width="1.0" stroke-linejoin="round" stroke-linecap="butt" d="m116.50268 49.01869l21.192924 -22.018688l-2.089676 20.215431l24.056992 -3.295208l-9.554474 10.849899l25.024979 3.1205788l-19.871933 8.875809l22.735992 10.686653l-27.120346 -1.3211212l7.447708 19.56247l-23.48761 -13.811035l-4.401428 20.044601l-15.459114 -18.229958l-11.65554 25.302513l-4.3843536 -22.675453l-16.81427 7.5546875l5.153038 -13.970482l-31.499008 2.4676132l20.424248 -10.67527l-21.192932 -11.996384l26.34597 -3.7887344l-24.239204 -20.204044l39.527496 15.280212l5.9217224 -15.280212z" fill-rule="nonzero"></path><path fill="#0000ff" d="m82.43938 666.9258l-7.2408524 -33.43213l17.694145 17.292542l12.200058 -21.119263l4.1331177 15.78833l18.853134 -16.889832l-4.286743 22.218506l24.517166 -9.254944l-18.492523 19.902466l23.145737 9.426697l-27.935318 7.411499l16.06305 18.943909l-26.98729 -2.2111816l16.397064 28.619812l-24.126762 -14.205078l-3.585205 18.834412l-9.8691025 -14.8125l-17.712173 26.21997l2.9446945 -24.040527l-24.768219 7.048401l13.19149 -23.268372l-34.42935 3.0327148l39.519684 -18.648987l-10.612694 -16.42157z" fill-rule="nonzero"></path><path stroke="#000000" stroke-width="1.0" stroke-linejoin="round" stroke-linecap="butt" d="m82.43938 666.9258l-7.2408524 -33.43213l17.694145 17.292542l12.200058 -21.119263l4.1331177 15.78833l18.853134 -16.889832l-4.286743 22.218506l24.517166 -9.254944l-18.492523 19.902466l23.145737 9.426697l-27.935318 7.411499l16.06305 18.943909l-26.98729 -2.2111816l16.397064 28.619812l-24.126762 -14.205078l-3.585205 18.834412l-9.8691025 -14.8125l-17.712173 26.21997l2.9446945 -24.040527l-24.768219 7.048401l13.19149 -23.268372l-34.42935 3.0327148l39.519684 -18.648987l-10.612694 -16.42157z" fill-rule="nonzero"></path><path fill="#38761d" d="m771.0 48.330708l0 0c0 -6.8100624 9.178162 -12.330708 20.5 -12.330708c11.321838 0 20.5 5.520645 20.5 12.330708l0 49.322834c0 6.810066 -9.178162 12.330711 -20.5 12.330711c-11.321838 0 -20.5 -5.520645 -20.5 -12.330711z" fill-rule="nonzero"></path><path fill="#000000" fill-opacity="0.0" d="m812.0 48.330708l0 0c0 6.8100624 -9.178162 12.330711 -20.5 12.330711c-11.321838 0 -20.5 -5.520649 -20.5 -12.330711" fill-rule="nonzero"></path><path fill="#000000" fill-opacity="0.0" d="m771.0 48.330708l0 0c0 -6.8100624 9.178162 -12.330708 20.5 -12.330708c11.321838 0 20.5 5.520645 20.5 12.330708l0 49.322834c0 6.810066 -9.178162 12.330711 -20.5 12.330711c-11.321838 0 -20.5 -5.520645 -20.5 -12.330711z" fill-rule="nonzero"></path><path stroke="#000000" stroke-width="1.0" stroke-linejoin="round" stroke-linecap="butt" d="m812.0 48.330708l0 0c0 6.8100624 -9.178162 12.330711 -20.5 12.330711c-11.321838 0 -20.5 -5.520649 -20.5 -12.330711" fill-rule="nonzero"></path><path stroke="#000000" stroke-width="1.0" stroke-linejoin="round" stroke-linecap="butt" d="m771.0 48.330708l0 0c0 -6.8100624 9.178162 -12.330708 20.5 -12.330708c11.321838 0 20.5 5.520645 20.5 12.330708l0 49.322834c0 6.810066 -9.178162 12.330711 -20.5 12.330711c-11.321838 0 -20.5 -5.520645 -20.5 -12.330711z" fill-rule="nonzero"></path><path fill="#38761d" d="m787.0 64.33071l0 0c0 -6.810066 9.178162 -12.330711 20.5 -12.330711c11.321838 0 20.5 5.520645 20.5 12.330711l0 49.32283c0 6.810066 -9.178162 12.330711 -20.5 12.330711c-11.321838 0 -20.5 -5.520645 -20.5 -12.330711z" fill-rule="nonzero"></path><path fill="#000000" fill-opacity="0.0" d="m828.0 64.33071l0 0c0 6.8100586 -9.178162 12.330704 -20.5 12.330704c-11.321838 0 -20.5 -5.520645 -20.5 -12.330704" fill-rule="nonzero"></path><path fill="#000000" fill-opacity="0.0" d="m787.0 64.33071l0 0c0 -6.810066 9.178162 -12.330711 20.5 -12.330711c11.321838 0 20.5 5.520645 20.5 12.330711l0 49.32283c0 6.810066 -9.178162 12.330711 -20.5 12.330711c-11.321838 0 -20.5 -5.520645 -20.5 -12.330711z" fill-rule="nonzero"></path><path stroke="#000000" stroke-width="1.0" stroke-linejoin="round" stroke-linecap="butt" d="m828.0 64.33071l0 0c0 6.8100586 -9.178162 12.330704 -20.5 12.330704c-11.321838 0 -20.5 -5.520645 -20.5 -12.330704" fill-rule="nonzero"></path><path stroke="#000000" stroke-width="1.0" stroke-linejoin="round" stroke-linecap="butt" d="m787.0 64.33071l0 0c0 -6.810066 9.178162 -12.330711 20.5 -12.330711c11.321838 0 20.5 5.520645 20.5 12.330711l0 49.32283c0 6.810066 -9.178162 12.330711 -20.5 12.330711c-11.321838 0 -20.5 -5.520645 -20.5 -12.330711z" fill-rule="nonzero"></path><path fill="#38761d" d="m803.0 80.33071l0 0c0 -6.810066 9.178162 -12.330711 20.5 -12.330711c11.321838 0 20.5 5.520645 20.5 12.330711l0 49.322838c0 6.8100586 -9.178162 12.330704 -20.5 12.330704c-11.321838 0 -20.5 -5.520645 -20.5 -12.330704z" fill-rule="nonzero"></path><path fill="#000000" fill-opacity="0.0" d="m844.0 80.33071l0 0c0 6.8100586 -9.178162 12.330704 -20.5 12.330704c-11.321838 0 -20.5 -5.520645 -20.5 -12.330704" fill-rule="nonzero"></path><path fill="#000000" fill-opacity="0.0" d="m803.0 80.33071l0 0c0 -6.810066 9.178162 -12.330711 20.5 -12.330711c11.321838 0 20.5 5.520645 20.5 12.330711l0 49.322838c0 6.8100586 -9.178162 12.330704 -20.5 12.330704c-11.321838 0 -20.5 -5.520645 -20.5 -12.330704z" fill-rule="nonzero"></path><path stroke="#000000" stroke-width="1.0" stroke-linejoin="round" stroke-linecap="butt" d="m844.0 80.33071l0 0c0 6.8100586 -9.178162 12.330704 -20.5 12.330704c-11.321838 0 -20.5 -5.520645 -20.5 -12.330704" fill-rule="nonzero"></path><path stroke="#000000" stroke-width="1.0" stroke-linejoin="round" stroke-linecap="butt" d="m803.0 80.33071l0 0c0 -6.810066 9.178162 -12.330711 20.5 -12.330711c11.321838 0 20.5 5.520645 20.5 12.330711l0 49.322838c0 6.8100586 -9.178162 12.330704 -20.5 12.330704c-11.321838 0 -20.5 -5.520645 -20.5 -12.330704z" fill-rule="nonzero"></path></g></svg>

